<svg width="661" height="412" viewBox="0 0 661 412" fill="none" xmlns="http://www.w3.org/2000/svg"><rect x="41.068" y=".625" width="586" height="411" rx="8" fill="#3D3F4D"/><path d="M40.689 6.84a6 6 0 016-6h574a6 6 0 016 6v26h-586v-26z" fill="#2F313C"/><circle cx="60.867" cy="16.985" r="5.381" fill="#6422F1"/><circle cx="75.934" cy="16.985" r="5.381" fill="#F46591"/><circle cx="91.004" cy="16.985" r="5.381" fill="#2BD38D"/><path d="M413.689 87.84a6 6 0 016-6h235a6 6 0 016 6v258.001a6 6 0 01-6 6h-235a6 6 0 01-6-6v-258z" fill="#282A36"/><path d="M627.689 241.841a90.004 90.004 0 00-55.559-83.149 89.995 89.995 0 00-98.081 19.509 90.004 90.004 0 00-26.36 63.64h38.804a51.193 51.193 0 0131.604-47.299 51.194 51.194 0 0170.788 47.299h38.804z" fill="#2F313B"/><path d="M447.689 241.841a90 90 0 01176.293-25.563L586.777 227.3a51.195 51.195 0 00-100.284 14.541h-38.804z" fill="#D14671"/><circle cx="533.037" cy="235.418" r="12" transform="rotate(78.99 533.037 235.418)" fill="#D14671"/><circle cx="533.037" cy="235.418" r="9.5" transform="rotate(78.99 533.037 235.418)" stroke="#53555E" stroke-width="5"/><path d="M544.49 239.302l69.038-19.545-70.184 13.656s.11 4.053 1.146 5.889z" fill="#53555E"/><path d="M542.198 227.523l71.33-7.766-70.184 13.656c-.306-1.571-1.418-3.799-1.146-5.89z" fill="#53555E"/><path d="M506.43 118.543h2.222l1.117 1.436 1.098 1.28 2.071 2.596h-2.439l-1.425-1.751-.73-1.038-1.914-2.523zm6.695-1.884c0 1.348-.256 2.495-.767 3.441-.507.946-1.199 1.668-2.076 2.167-.874.495-1.856.743-2.946.743-1.099 0-2.085-.25-2.958-.749-.874-.499-1.564-1.221-2.071-2.167-.507-.946-.761-2.091-.761-3.435 0-1.348.254-2.495.761-3.441.507-.946 1.197-1.666 2.071-2.161.873-.499 1.859-.749 2.958-.749 1.09 0 2.072.25 2.946.749.877.495 1.569 1.215 2.076 2.161.511.946.767 2.093.767 3.441zm-2.65 0c0-.873-.131-1.61-.393-2.21-.257-.599-.621-1.054-1.092-1.364-.471-.31-1.023-.465-1.654-.465-.632 0-1.184.155-1.654.465-.471.31-.838.765-1.099 1.364-.258.6-.387 1.337-.387 2.21s.129 1.61.387 2.21c.261.599.628 1.054 1.099 1.364.47.31 1.022.465 1.654.465.631 0 1.183-.155 1.654-.465.471-.31.835-.765 1.092-1.364.262-.6.393-1.337.393-2.21zm10.484 2.234v-5.325h2.572v9.273h-2.469v-1.684h-.096c-.21.543-.558.98-1.045 1.31-.483.33-1.072.495-1.769.495-.619 0-1.165-.141-1.636-.423a2.9 2.9 0 01-1.104-1.201c-.262-.52-.395-1.141-.399-1.866v-5.904h2.572v5.445c.004.548.151.98.441 1.298.289.318.678.477 1.165.477.31 0 .599-.07.869-.211.27-.145.487-.358.652-.64.169-.282.251-.63.247-1.044zm8.855 4.129c-.954 0-1.775-.193-2.463-.58a3.97 3.97 0 01-1.582-1.654c-.37-.716-.555-1.563-.555-2.541 0-.954.185-1.791.555-2.512a4.117 4.117 0 011.564-1.684c.676-.402 1.469-.604 2.379-.604.611 0 1.181.099 1.708.296.531.193.994.485 1.388.876.399.39.709.881.93 1.473.222.587.332 1.275.332 2.064v.706h-7.83v-1.593h5.409c0-.371-.08-.699-.241-.984a1.726 1.726 0 00-.67-.67 1.913 1.913 0 00-.984-.248c-.391 0-.737.091-1.039.272a1.907 1.907 0 00-.7.718 2.03 2.03 0 00-.259.996v1.516c0 .458.084.855.253 1.189.173.334.417.591.731.773.313.181.686.271 1.116.271.286 0 .548-.04.785-.121a1.57 1.57 0 00.996-.953l2.379.157a3.248 3.248 0 01-.743 1.497c-.37.422-.849.752-1.436.99-.584.233-1.258.35-2.023.35zm5.934-.181v-9.273h2.494v1.618h.096c.169-.576.453-1.01.851-1.304a2.24 2.24 0 011.377-.447c.129 0 .268.008.416.024.149.017.28.039.393.067v2.282a3.372 3.372 0 00-.501-.097 4.544 4.544 0 00-.586-.042c-.378 0-.716.082-1.014.247a1.82 1.82 0 00-.7.677 1.948 1.948 0 00-.254 1.002v5.246h-2.572zm6.957 0v-9.273h2.571v9.273h-2.571zm1.291-10.468c-.382 0-.71-.127-.984-.381a1.233 1.233 0 01-.404-.923c0-.354.135-.658.404-.912.274-.257.602-.386.984-.386.383 0 .709.129.978.386a1.2 1.2 0 01.411.912c0 .358-.137.666-.411.923a1.373 1.373 0 01-.978.381zm7.566 10.649c-.954 0-1.775-.193-2.463-.58a3.97 3.97 0 01-1.582-1.654c-.37-.716-.555-1.563-.555-2.541 0-.954.185-1.791.555-2.512a4.117 4.117 0 011.564-1.684c.676-.402 1.469-.604 2.379-.604.611 0 1.181.099 1.708.296a3.79 3.79 0 011.389.876c.398.39.708.881.929 1.473.222.587.332 1.275.332 2.064v.706h-7.83v-1.593h5.409c0-.371-.08-.699-.241-.984a1.726 1.726 0 00-.67-.67 1.913 1.913 0 00-.984-.248c-.391 0-.737.091-1.039.272a1.907 1.907 0 00-.7.718 2.03 2.03 0 00-.259.996v1.516c0 .458.084.855.253 1.189.173.334.417.591.731.773.314.181.686.271 1.116.271.286 0 .548-.04.785-.121a1.57 1.57 0 00.996-.953l2.379.157a3.248 3.248 0 01-.743 1.497c-.37.422-.849.752-1.436.99-.584.233-1.258.35-2.023.35zm13.65-6.81l-2.355.145a1.212 1.212 0 00-.259-.543 1.383 1.383 0 00-.526-.393c-.213-.1-.468-.15-.766-.15-.399 0-.735.084-1.008.253-.274.165-.411.386-.411.664 0 .221.089.409.266.562.177.152.481.275.911.368l1.679.338c.901.185 1.573.483 2.016.893.443.411.664.95.664 1.618 0 .608-.179 1.141-.537 1.6-.354.459-.841.817-1.461 1.075-.616.253-1.326.38-2.131.38-1.228 0-2.206-.256-2.934-.767-.725-.515-1.149-1.215-1.274-2.101l2.529-.132c.077.374.262.66.556.857.294.193.67.29 1.129.29.451 0 .813-.087 1.086-.26.278-.177.419-.404.423-.682a.71.71 0 00-.296-.574c-.193-.153-.491-.269-.893-.35l-1.606-.32c-.906-.181-1.58-.495-2.022-.942-.439-.446-.659-1.016-.659-1.708 0-.596.161-1.109.483-1.539.326-.431.783-.763 1.371-.997.591-.233 1.284-.35 2.077-.35 1.171 0 2.092.248 2.764.743.677.495 1.071 1.169 1.184 2.022zm-44.203 154.333V288h-3.691v-13.952h-.102l-3.997 2.506v-3.273l4.321-2.736h3.469zm10.992 17.839c-1.466-.006-2.728-.367-3.784-1.083-1.052-.716-1.861-1.753-2.429-3.111-.563-1.358-.841-2.991-.836-4.9 0-1.904.282-3.526.844-4.867.568-1.341 1.378-2.361 2.429-3.059 1.057-.705 2.315-1.057 3.776-1.057 1.46 0 2.716.352 3.767 1.057 1.057.704 1.869 1.727 2.437 3.068.568 1.335.85 2.954.844 4.858 0 1.915-.284 3.551-.852 4.909-.563 1.358-1.37 2.395-2.421 3.111-1.051.716-2.309 1.074-3.775 1.074zm0-3.06c1 0 1.798-.503 2.395-1.509.596-1.005.892-2.514.886-4.525 0-1.324-.136-2.426-.409-3.307-.267-.881-.648-1.543-1.142-1.986a2.493 2.493 0 00-1.73-.665c-.995 0-1.79.498-2.387 1.492-.596.994-.897 2.483-.903 4.466 0 1.341.133 2.46.401 3.358.272.892.656 1.562 1.15 2.011a2.522 2.522 0 001.739.665zm12.748-10.415l2.403 4.577 2.463-4.577h3.724l-3.792 6.546 3.895 6.545h-3.708l-2.582-4.526-2.54 4.526h-3.75l3.887-6.545-3.75-6.546h3.75zm-32.739 37.932v-10.909h6.541v1.172h-5.22v3.686h4.73v1.172h-4.73v4.879h-1.321zm11.041.192c-.519 0-.989-.098-1.412-.293a2.421 2.421 0 01-1.006-.858c-.249-.376-.373-.831-.373-1.364 0-.468.092-.848.277-1.14.184-.294.431-.525.74-.692a3.9 3.9 0 011.023-.373c.376-.085.754-.153 1.134-.202a51.7 51.7 0 011.21-.144c.312-.036.539-.094.681-.176.146-.082.219-.224.219-.426v-.043c0-.525-.144-.934-.432-1.225-.284-.291-.715-.437-1.294-.437-.6 0-1.071.132-1.412.395-.341.262-.58.543-.719.841l-1.193-.426c.213-.497.497-.884.852-1.161.359-.281.75-.476 1.172-.586a4.849 4.849 0 011.257-.171c.263 0 .565.032.906.096.344.061.676.187.996.379.323.191.591.481.804.868.213.387.32.905.32 1.555v5.391h-1.257v-1.108h-.064a2.223 2.223 0 01-.426.57 2.488 2.488 0 01-.794.517c-.33.142-.733.213-1.209.213zm.192-1.13c.497 0 .916-.097 1.257-.293.344-.195.603-.447.777-.756.178-.309.267-.634.267-.975v-1.15c-.053.064-.171.122-.352.175a6.02 6.02 0 01-.618.134 28.034 28.034 0 01-1.203.159 4.824 4.824 0 00-.917.208c-.28.092-.507.233-.681.421-.171.185-.256.437-.256.756 0 .437.161.767.485.991.326.22.74.33 1.241.33zm11.648-5.412l-1.129.32a2.098 2.098 0 00-.315-.549 1.519 1.519 0 00-.554-.447c-.234-.117-.534-.176-.9-.176-.501 0-.918.116-1.252.346-.33.228-.495.517-.495.869 0 .312.114.559.341.74.227.181.582.332 1.065.453l1.215.298c.731.178 1.276.449 1.635.815.359.362.538.829.538 1.401 0 .469-.135.888-.405 1.257-.266.369-.639.661-1.118.874-.48.213-1.037.319-1.673.319-.835 0-1.525-.181-2.072-.543-.547-.362-.893-.891-1.039-1.587l1.193-.299c.114.441.329.771.645.991.319.22.737.33 1.252.33.586 0 1.051-.124 1.395-.373.348-.252.522-.554.522-.905a.952.952 0 00-.298-.714c-.199-.195-.504-.341-.916-.437l-1.364-.319c-.749-.178-1.3-.453-1.651-.826-.348-.376-.522-.847-.522-1.411 0-.462.129-.871.389-1.226a2.645 2.645 0 011.07-.836 3.77 3.77 0 011.545-.304c.81 0 1.445.178 1.907.533.465.355.796.824.991 1.406zm5.6-1.832v1.065h-4.241v-1.065h4.241zm-3.005-1.96h1.257v7.798c0 .355.052.622.155.799a.8.8 0 00.405.352c.167.056.342.085.527.085.139 0 .252-.007.341-.021l.213-.043.256 1.129a2.577 2.577 0 01-.357.096 2.602 2.602 0 01-.581.053c-.355 0-.703-.076-1.044-.229a2.066 2.066 0 01-.841-.697c-.221-.313-.331-.707-.331-1.183v-8.139zm8.238 10.312c-.788 0-1.468-.174-2.04-.522a3.5 3.5 0 01-1.316-1.47c-.305-.632-.458-1.367-.458-2.205 0-.838.153-1.577.458-2.216.309-.643.739-1.144 1.289-1.502.554-.362 1.201-.544 1.939-.544.426 0 .847.071 1.263.214.415.142.793.372 1.134.692.341.316.613.735.815 1.257.203.522.304 1.165.304 1.928v.533h-6.307v-1.087h5.028c0-.461-.092-.873-.277-1.235a2.087 2.087 0 00-.777-.858c-.334-.21-.728-.314-1.183-.314-.501 0-.934.124-1.3.373a2.45 2.45 0 00-.836.958 2.824 2.824 0 00-.293 1.268v.725c0 .617.107 1.141.32 1.571.216.426.517.751.9.975.384.22.829.33 1.337.33.33 0 .629-.046.895-.138.27-.096.502-.238.698-.427.195-.191.346-.429.452-.713l1.215.341a2.694 2.694 0 01-.645 1.086 3.131 3.131 0 01-1.118.725 4.16 4.16 0 01-1.497.255zm5.3-.17v-8.182h1.215v1.236h.085c.149-.405.419-.734.809-.986a2.386 2.386 0 011.322-.378c.092 0 .207.002.346.005.138.004.243.009.314.016v1.279a3.427 3.427 0 00-.293-.048 2.865 2.865 0 00-.474-.037c-.398 0-.753.083-1.065.25a1.832 1.832 0 00-1.002 1.667v5.178h-1.257z" fill="#fff"/><path d="M.689 87.625a6 6 0 016-6h389a6 6 0 016 6v280a6 6 0 01-6 6h-389a6 6 0 01-6-6v-280z" fill="#282A36"/><path d="M19.689 143.841h363m-363 78h363m-363 47h363" stroke="#3D3F4D" stroke-dasharray="5 5"/><path d="M173.378 110.477v12.364h-2.614v-12.364h2.614zm4.674 7.003v5.361h-2.572v-9.273h2.451v1.636h.109a2.587 2.587 0 011.032-1.28c.483-.318 1.068-.477 1.757-.477.644 0 1.205.141 1.684.423.479.282.851.684 1.117 1.207.265.52.398 1.139.398 1.86v5.904h-2.572v-5.445c.004-.568-.14-1.011-.434-1.329-.294-.322-.698-.483-1.214-.483a1.84 1.84 0 00-.917.224 1.554 1.554 0 00-.616.652c-.145.282-.219.622-.223 1.02zm15.718-1.268l-2.354.145a1.213 1.213 0 00-.26-.543 1.387 1.387 0 00-.525-.393c-.213-.1-.469-.15-.767-.15-.398 0-.734.084-1.008.253-.273.165-.41.386-.41.664 0 .221.088.409.265.562.177.152.481.275.912.368l1.678.338c.902.185 1.574.483 2.017.893.442.411.664.95.664 1.618 0 .608-.18 1.141-.538 1.6-.354.459-.841.817-1.461 1.075-.615.253-1.326.38-2.131.38-1.227 0-2.205-.256-2.934-.767a2.984 2.984 0 01-1.273-2.101l2.529-.132c.077.374.262.66.555.857.294.193.671.29 1.129.29.451 0 .813-.087 1.087-.26.278-.177.419-.404.423-.682a.71.71 0 00-.296-.574c-.193-.153-.491-.269-.894-.35l-1.606-.32c-.905-.181-1.579-.495-2.022-.942-.439-.446-.658-1.016-.658-1.708 0-.596.161-1.109.483-1.539.326-.431.783-.763 1.37-.997.592-.233 1.284-.35 2.077-.35 1.171 0 2.093.248 2.765.743.676.495 1.071 1.169 1.183 2.022zm6.763-2.644v1.932h-5.584v-1.932h5.584zm-4.316-2.221h2.571v8.644c0 .238.037.423.109.556a.597.597 0 00.302.271c.133.053.286.079.459.079.121 0 .241-.01.362-.03l.278-.055.404 1.914c-.129.04-.31.087-.543.139a4.379 4.379 0 01-.851.103c-.62.024-1.163-.059-1.63-.248a2.278 2.278 0 01-1.081-.881c-.257-.399-.384-.902-.38-1.51v-8.982zm8.636 11.669c-.592 0-1.119-.103-1.582-.308a2.543 2.543 0 01-1.099-.924c-.265-.41-.398-.921-.398-1.533 0-.515.094-.948.283-1.298.19-.35.447-.632.773-.845a3.76 3.76 0 011.111-.483 8.4 8.4 0 011.316-.229c.539-.057.974-.109 1.304-.157.33-.053.57-.129.718-.23a.503.503 0 00.224-.447v-.036c0-.382-.121-.678-.362-.887-.238-.21-.576-.314-1.015-.314-.462 0-.831.102-1.104.308a1.42 1.42 0 00-.544.76l-2.378-.193a3.23 3.23 0 01.712-1.461 3.431 3.431 0 011.37-.954c.564-.225 1.216-.338 1.956-.338.516 0 1.009.061 1.479.181.475.121.896.308 1.262.562.37.253.662.579.876.978.213.394.32.867.32 1.419v6.254h-2.439v-1.286h-.073c-.149.29-.348.545-.597.767-.25.217-.55.388-.9.513-.35.121-.755.181-1.213.181zm.736-1.775c.378 0 .712-.074 1.002-.223.29-.153.517-.359.682-.616.165-.258.248-.549.248-.875v-.984c-.081.052-.191.1-.332.144a5.654 5.654 0 01-.465.115 31.32 31.32 0 01-.519.091l-.471.066a3.203 3.203 0 00-.791.211c-.225.097-.4.228-.525.393a.953.953 0 00-.187.603c0 .351.127.618.38.803.258.181.584.272.978.272zm9.052-3.761v5.361h-2.571v-9.273h2.451v1.636h.108c.206-.539.55-.966 1.033-1.28.483-.318 1.068-.477 1.756-.477.644 0 1.206.141 1.685.423.479.282.851.684 1.117 1.207.265.52.398 1.139.398 1.86v5.904h-2.572v-5.445c.004-.568-.141-1.011-.434-1.329-.294-.322-.699-.483-1.214-.483a1.84 1.84 0 00-.917.224 1.554 1.554 0 00-.616.652c-.145.282-.22.622-.224 1.02zm12.194 5.542c-.95 0-1.767-.201-2.451-.604a4.074 4.074 0 01-1.57-1.69c-.362-.721-.543-1.55-.543-2.487 0-.95.183-1.783.549-2.5a4.08 4.08 0 011.576-1.684c.68-.406 1.489-.61 2.426-.61.809 0 1.518.147 2.125.441a3.546 3.546 0 011.443 1.238c.354.531.55 1.155.586 1.871h-2.427c-.068-.463-.249-.835-.543-1.117-.29-.286-.67-.428-1.141-.428a1.72 1.72 0 00-1.045.326c-.293.213-.523.525-.688.935-.165.411-.247.908-.247 1.491 0 .592.08 1.095.241 1.51.165.414.397.73.694.947a1.72 1.72 0 001.045.326c.294 0 .557-.06.791-.181.237-.12.432-.295.585-.525.157-.233.26-.513.308-.839h2.427c-.04.708-.234 1.332-.58 1.871a3.5 3.5 0 01-1.418 1.256c-.604.302-1.318.453-2.143.453zm10.013 0c-.954 0-1.775-.193-2.463-.58a3.96 3.96 0 01-1.581-1.654c-.371-.716-.556-1.563-.556-2.541 0-.954.185-1.791.556-2.512.37-.72.891-1.281 1.563-1.684.676-.402 1.469-.604 2.379-.604.611 0 1.181.099 1.708.296a3.79 3.79 0 011.389.876c.398.39.708.881.929 1.473.222.587.332 1.275.332 2.064v.706h-7.83v-1.593h5.41c0-.371-.081-.699-.242-.984a1.726 1.726 0 00-.67-.67 1.913 1.913 0 00-.984-.248c-.39 0-.737.091-1.038.272a1.902 1.902 0 00-.701.718 2.03 2.03 0 00-.259.996v1.516c0 .458.084.855.253 1.189.173.334.417.591.731.773.314.181.686.271 1.117.271.285 0 .547-.04.784-.121a1.57 1.57 0 00.996-.953l2.379.157a3.248 3.248 0 01-.743 1.497c-.37.422-.849.752-1.436.99-.584.233-1.258.35-2.023.35z" fill="#fff"/><path d="M208.127 313.006v-3.633l9.109-14.35h3.132v5.028h-1.854l-5.742 9.087v.171h12.944v3.697h-17.589zm10.472 3.835v-4.943l.086-1.609v-15.266h4.325v21.818h-4.411zm14.026-16.364l3.004 5.721 3.079-5.721h4.655l-4.74 8.182 4.868 8.182h-4.634l-3.228-5.657-3.175 5.657h-4.687l4.858-8.182-4.688-8.182h4.688z" fill="#D14671"/><path d="M264.976 307.659a1.67 1.67 0 00-.778-1.257c-.454-.298-1.012-.448-1.672-.448-.483 0-.906.079-1.268.235a2.028 2.028 0 00-.842.644 1.547 1.547 0 00-.298.933c0 .291.069.541.208.751.142.206.323.378.543.516.22.135.451.247.692.336.242.085.464.154.666.208l1.108.298c.284.074.6.177.948.309.352.131.688.311 1.007.538.323.224.59.511.799.863.21.351.314.783.314 1.294a2.87 2.87 0 01-.463 1.598c-.305.476-.753.854-1.342 1.135-.586.28-1.298.421-2.136.421-.782 0-1.458-.126-2.03-.379-.568-.252-1.015-.603-1.342-1.054a3.015 3.015 0 01-.549-1.572h1.364c.035.412.174.753.415 1.023.245.266.554.465.927.597.377.127.781.191 1.215.191a3.56 3.56 0 001.358-.245c.401-.167.719-.397.953-.692.235-.298.352-.646.352-1.044 0-.362-.101-.657-.304-.884a2.208 2.208 0 00-.799-.554 8.325 8.325 0 00-1.07-.373l-1.343-.384c-.852-.245-1.527-.595-2.024-1.049-.497-.455-.745-1.049-.745-1.785 0-.61.165-1.143.495-1.598a3.29 3.29 0 011.342-1.065c.565-.256 1.195-.383 1.891-.383.703 0 1.328.126 1.875.378.547.248.98.589 1.3 1.023.323.433.494.925.511 1.475h-1.278zm3.429 8.182v-8.182h1.214v1.278h.107c.17-.436.446-.776.826-1.017.38-.245.836-.368 1.369-.368.539 0 .989.123 1.347.368.362.241.645.581.847 1.017h.085c.21-.422.524-.758.943-1.006.419-.252.922-.379 1.508-.379.731 0 1.33.23 1.795.688.465.454.698 1.163.698 2.125v5.476h-1.258v-5.476c0-.604-.165-1.035-.495-1.294a1.828 1.828 0 00-1.166-.389c-.576 0-1.021.174-1.337.522-.316.344-.475.781-.475 1.31v5.327h-1.278v-5.604c0-.465-.151-.84-.453-1.124-.302-.287-.69-.431-1.166-.431-.327 0-.632.087-.916.261a1.966 1.966 0 00-.682.724 2.135 2.135 0 00-.256 1.06v5.114h-1.257zm15.445.192c-.519 0-.989-.098-1.412-.293a2.43 2.43 0 01-1.007-.858c-.248-.376-.372-.831-.372-1.364 0-.468.092-.848.277-1.14.184-.294.431-.525.74-.692a3.9 3.9 0 011.023-.373c.376-.085.754-.153 1.134-.202.497-.064.9-.112 1.209-.144.313-.036.54-.094.682-.176.146-.082.219-.224.219-.426v-.043c0-.525-.144-.934-.432-1.225-.284-.291-.715-.437-1.294-.437-.6 0-1.071.132-1.412.395-.341.262-.58.543-.719.841l-1.193-.426c.213-.497.497-.884.852-1.161a3.186 3.186 0 011.172-.586 4.849 4.849 0 011.257-.171c.263 0 .565.032.906.096.344.061.676.187.996.379.323.191.591.481.804.868.213.387.32.905.32 1.555v5.391h-1.257v-1.108h-.064a2.271 2.271 0 01-.426.57 2.488 2.488 0 01-.794.517c-.33.142-.733.213-1.209.213zm.192-1.13c.497 0 .916-.097 1.257-.293.344-.195.603-.447.777-.756.178-.309.267-.634.267-.975v-1.15c-.054.064-.171.122-.352.175a6.02 6.02 0 01-.618.134 28.756 28.756 0 01-1.204.159 4.831 4.831 0 00-.916.208c-.28.092-.508.233-.682.421-.17.185-.255.437-.255.756 0 .437.161.767.484.991.327.22.741.33 1.242.33zm7.109-9.971v10.909h-1.257v-10.909h1.257zm3.56 0v10.909h-1.257v-10.909h1.257zm5.733 11.079c-.789 0-1.469-.174-2.04-.522a3.493 3.493 0 01-1.316-1.47c-.305-.632-.458-1.367-.458-2.205 0-.838.153-1.577.458-2.216.309-.643.739-1.144 1.289-1.502.554-.362 1.2-.544 1.939-.544.426 0 .847.071 1.262.214.416.142.794.372 1.135.692.341.316.613.735.815 1.257.202.522.304 1.165.304 1.928v.533h-6.307v-1.087h5.028c0-.461-.092-.873-.277-1.235a2.082 2.082 0 00-.778-.858c-.333-.21-.728-.314-1.182-.314-.501 0-.934.124-1.3.373a2.45 2.45 0 00-.836.958 2.824 2.824 0 00-.293 1.268v.725c0 .617.106 1.141.32 1.571.216.426.516.751.9.975.383.22.829.33 1.337.33.33 0 .628-.046.895-.138.27-.096.502-.238.697-.427.196-.191.347-.429.453-.713l1.215.341a2.694 2.694 0 01-.645 1.086 3.149 3.149 0 01-1.118.725 4.16 4.16 0 01-1.497.255zm5.3-.17v-8.182h1.214v1.236h.086c.149-.405.419-.734.809-.986a2.385 2.385 0 011.321-.378c.093 0 .208.002.346.005.139.004.244.009.315.016v1.279a3.503 3.503 0 00-.293-.048 2.865 2.865 0 00-.474-.037c-.398 0-.753.083-1.066.25a1.886 1.886 0 00-.735.682 1.84 1.84 0 00-.266.985v5.178h-1.257zm11.291-10.909v10.909h-1.321v-10.909h1.321zm3.735 5.987v4.922h-1.257v-8.182h1.215v1.278h.106c.192-.415.483-.749.874-1.001.391-.256.895-.384 1.513-.384.554 0 1.038.114 1.454.341.415.224.739.565.969 1.023.231.455.347 1.03.347 1.726v5.199h-1.257v-5.114c0-.643-.167-1.143-.501-1.502-.334-.362-.792-.543-1.374-.543-.402 0-.76.087-1.076.261-.313.174-.56.428-.741.761-.181.334-.272.739-.272 1.215zm13.313-1.428l-1.129.32a2.122 2.122 0 00-.314-.549 1.527 1.527 0 00-.554-.447c-.235-.117-.535-.176-.9-.176-.501 0-.918.116-1.252.346-.331.228-.496.517-.496.869 0 .312.114.559.341.74.228.181.583.332 1.066.453l1.214.298c.732.178 1.277.449 1.635.815.359.362.538.829.538 1.401 0 .469-.135.888-.404 1.257-.267.369-.64.661-1.119.874-.479.213-1.037.319-1.673.319-.834 0-1.525-.181-2.072-.543-.547-.362-.893-.891-1.038-1.587l1.193-.299c.113.441.328.771.644.991.32.22.737.33 1.252.33.586 0 1.051-.124 1.396-.373.348-.252.522-.554.522-.905 0-.284-.1-.522-.299-.714-.198-.195-.504-.341-.916-.437l-1.363-.319c-.75-.178-1.3-.453-1.652-.826-.348-.376-.522-.847-.522-1.411 0-.462.13-.871.389-1.226.263-.355.62-.633 1.071-.836a3.763 3.763 0 011.545-.304c.809 0 1.445.178 1.906.533.466.355.796.824.991 1.406zm5.6-1.832v1.065h-4.24v-1.065h4.24zm-3.004-1.96h1.257v7.798c0 .355.051.622.154.799a.808.808 0 00.405.352c.167.056.343.085.527.085.139 0 .253-.007.341-.021l.213-.043.256 1.129a2.537 2.537 0 01-.357.096 2.598 2.598 0 01-.58.053 2.52 2.52 0 01-1.044-.229 2.07 2.07 0 01-.842-.697c-.22-.313-.33-.707-.33-1.183v-8.139zm7.303 10.334c-.519 0-.989-.098-1.412-.293a2.424 2.424 0 01-1.007-.858c-.248-.376-.373-.831-.373-1.364 0-.468.093-.848.277-1.14.185-.294.432-.525.741-.692a3.9 3.9 0 011.023-.373c.376-.085.754-.153 1.134-.202.497-.064.9-.112 1.209-.144.313-.036.54-.094.682-.176.146-.082.218-.224.218-.426v-.043c0-.525-.143-.934-.431-1.225-.284-.291-.716-.437-1.294-.437-.601 0-1.071.132-1.412.395-.341.262-.581.543-.719.841l-1.193-.426c.213-.497.497-.884.852-1.161a3.186 3.186 0 011.172-.586 4.849 4.849 0 011.257-.171c.263 0 .565.032.906.096.344.061.676.187.996.379.323.191.591.481.804.868.213.387.32.905.32 1.555v5.391h-1.258v-1.108h-.063a2.254 2.254 0 01-.427.57 2.472 2.472 0 01-.793.517c-.331.142-.734.213-1.209.213zm.191-1.13c.497 0 .917-.097 1.257-.293a1.988 1.988 0 001.044-1.731v-1.15c-.053.064-.17.122-.351.175a6.14 6.14 0 01-.618.134 28.756 28.756 0 01-1.204.159 4.814 4.814 0 00-.916.208 1.576 1.576 0 00-.682.421c-.17.185-.256.437-.256.756 0 .437.162.767.485.991.327.22.741.33 1.241.33zm7.11-3.984v4.922h-1.257v-8.182h1.215v1.278h.106c.192-.415.483-.749.874-1.001.39-.256.895-.384 1.512-.384.554 0 1.039.114 1.455.341.415.224.738.565.969 1.023.231.455.346 1.03.346 1.726v5.199h-1.257v-5.114c0-.643-.167-1.143-.5-1.502-.334-.362-.792-.543-1.375-.543-.401 0-.76.087-1.076.261a1.872 1.872 0 00-.74.761c-.181.334-.272.739-.272 1.215zm10.841 5.092c-.767 0-1.427-.181-1.981-.543a3.544 3.544 0 01-1.279-1.497c-.298-.636-.447-1.362-.447-2.178 0-.831.153-1.565.458-2.2.309-.64.739-1.139 1.289-1.497.554-.362 1.2-.544 1.939-.544.575 0 1.094.107 1.555.32.462.213.84.511 1.135.895.295.383.478.831.549 1.342h-1.257c-.096-.373-.309-.703-.64-.99-.326-.292-.767-.437-1.321-.437-.49 0-.919.128-1.289.383-.365.252-.651.609-.857 1.071-.203.458-.304.996-.304 1.614 0 .632.099 1.182.298 1.651.203.469.487.833.853 1.092.369.259.802.389 1.299.389.327 0 .624-.057.89-.17.266-.114.492-.277.676-.49.185-.214.316-.469.395-.768h1.257a2.907 2.907 0 01-1.63 2.222c-.455.223-.984.335-1.588.335zm8.486 0c-.789 0-1.469-.174-2.04-.522a3.493 3.493 0 01-1.316-1.47c-.305-.632-.458-1.367-.458-2.205 0-.838.153-1.577.458-2.216.309-.643.739-1.144 1.289-1.502.554-.362 1.2-.544 1.939-.544.426 0 .847.071 1.262.214.416.142.794.372 1.135.692.341.316.613.735.815 1.257.202.522.304 1.165.304 1.928v.533h-6.307v-1.087h5.028c0-.461-.092-.873-.277-1.235a2.082 2.082 0 00-.778-.858c-.333-.21-.728-.314-1.182-.314-.501 0-.934.124-1.3.373a2.45 2.45 0 00-.836.958 2.824 2.824 0 00-.293 1.268v.725c0 .617.106 1.141.32 1.571.216.426.516.751.9.975.383.22.829.33 1.337.33.33 0 .628-.046.895-.138.27-.096.502-.238.697-.427.196-.191.347-.429.453-.713l1.215.341a2.694 2.694 0 01-.645 1.086 3.149 3.149 0 01-1.118.725 4.16 4.16 0 01-1.497.255z" fill="#fff"/><rect x="33.689" y="143.841" width="25" height="174" fill="#E7A5B9"/><rect x="77.689" y="223.841" width="25" height="93.5" fill="#EB92AE"/><rect x="121.689" y="270.841" width="25" height="46.75" fill="#EC779B"/><rect x="165.689" y="293.841" width="25" height="23.375" fill="#D14671"/><path d="M32.388 333.835v-.869l3.835-6.068h.63v1.346h-.425l-2.898 4.586v.068h5.165v.937h-6.307zm4.108 1.79v-8.727H37.5v8.727h-1.005zm-.176 7.767l-.753.213a1.417 1.417 0 00-.21-.366c-.09-.12-.213-.22-.369-.298a1.343 1.343 0 00-.6-.117c-.334 0-.612.077-.835.231-.22.151-.33.344-.33.579 0 .208.076.372.227.493.152.121.389.221.71.302l.81.199c.488.118.851.299 1.09.543.24.242.36.553.36.934 0 .313-.09.592-.27.838a1.792 1.792 0 01-.746.583 2.73 2.73 0 01-1.116.213c-.556 0-1.016-.121-1.381-.363-.365-.241-.595-.594-.692-1.058l.795-.199c.076.294.219.514.43.661.213.147.49.22.834.22.39 0 .7-.083.93-.249.233-.168.349-.369.349-.603a.634.634 0 00-.2-.476c-.132-.13-.335-.227-.61-.291l-.91-.213c-.499-.119-.866-.302-1.1-.551-.232-.251-.348-.564-.348-.941 0-.308.086-.58.26-.817a1.77 1.77 0 01.713-.557 2.505 2.505 0 011.03-.203c.54 0 .963.119 1.271.356.31.236.53.549.66.937zm3.648 4.347c-.526 0-.98-.116-1.36-.348a2.34 2.34 0 01-.878-.98c-.203-.422-.305-.912-.305-1.471 0-.558.102-1.051.305-1.477.206-.428.493-.762.86-1.001.369-.242.8-.363 1.292-.363.284 0 .565.048.842.142.277.095.53.249.756.462.228.211.409.49.544.838.135.348.202.777.202 1.286v.355h-4.204v-.725h3.352c0-.307-.062-.582-.185-.823a1.384 1.384 0 00-.518-.572 1.45 1.45 0 00-.789-.21 1.5 1.5 0 00-.866.249 1.631 1.631 0 00-.558.639 1.88 1.88 0 00-.195.845v.483c0 .412.071.761.213 1.048.145.284.345.5.6.65.256.146.553.22.892.22.22 0 .419-.031.596-.093.18-.063.335-.158.465-.284.13-.127.231-.286.302-.475l.81.227a1.795 1.795 0 01-.43.724c-.201.206-.45.367-.746.483a2.757 2.757 0 01-.997.171zm3.533-.114v-5.455h.81v.824h.056c.1-.27.28-.489.54-.657a1.59 1.59 0 01.88-.252 7.131 7.131 0 01.441.014v.853a2.428 2.428 0 00-.195-.032 1.876 1.876 0 00-.316-.025c-.265 0-.502.056-.71.167a1.226 1.226 0 00-.668 1.111v3.452h-.838zm8.347-5.455l-2.017 5.455h-.852l-2.017-5.455h.909l1.505 4.347h.057l1.506-4.347h.909zm3.198 5.569c-.526 0-.98-.116-1.36-.348a2.339 2.339 0 01-.877-.98c-.204-.422-.306-.912-.306-1.471 0-.558.102-1.051.306-1.477a2.41 2.41 0 01.859-1.001c.37-.242.8-.363 1.292-.363.285 0 .565.048.842.142.277.095.53.249.757.462.227.211.408.49.543.838.135.348.202.777.202 1.286v.355H53.1v-.725h3.352c0-.307-.062-.582-.185-.823a1.385 1.385 0 00-.518-.572 1.45 1.45 0 00-.789-.21c-.333 0-.622.083-.866.249a1.631 1.631 0 00-.558.639 1.88 1.88 0 00-.195.845v.483c0 .412.071.761.213 1.048.145.284.345.5.6.65.256.146.553.22.892.22.22 0 .419-.031.596-.093.18-.063.335-.158.465-.284.13-.127.231-.286.302-.475l.81.227a1.797 1.797 0 01-.43.724c-.2.206-.45.367-.745.483a2.757 2.757 0 01-.998.171zm3.533-.114v-5.455h.81v.824h.056c.1-.27.28-.489.54-.657a1.59 1.59 0 01.881-.252 7.131 7.131 0 01.44.014v.853a2.428 2.428 0 00-.195-.032 1.876 1.876 0 00-.316-.025c-.265 0-.502.056-.71.167a1.226 1.226 0 00-.668 1.111v3.452h-.838zm7.584-4.233l-.752.213a1.417 1.417 0 00-.21-.366 1.02 1.02 0 00-.37-.298 1.343 1.343 0 00-.6-.117c-.333 0-.611.077-.834.231-.22.151-.33.344-.33.579 0 .208.076.372.227.493.152.121.388.221.71.302l.81.199c.488.118.851.299 1.09.543.24.242.359.553.359.934 0 .313-.09.592-.27.838a1.792 1.792 0 01-.746.583c-.32.142-.691.213-1.115.213-.556 0-1.017-.121-1.381-.363-.365-.241-.596-.594-.693-1.058l.796-.199c.075.294.219.514.43.661.212.147.49.22.834.22.39 0 .7-.083.93-.249.232-.168.348-.369.348-.603a.634.634 0 00-.198-.476c-.133-.13-.337-.227-.611-.291l-.91-.213c-.499-.119-.866-.302-1.1-.551-.232-.251-.348-.564-.348-.941 0-.308.086-.58.259-.817a1.77 1.77 0 01.714-.557 2.506 2.506 0 011.03-.203c.54 0 .963.119 1.27.356.311.236.531.549.661.937zm15.378-7.648c-.562 0-1.064-.096-1.504-.289a2.584 2.584 0 01-1.044-.806 2.163 2.163 0 01-.418-1.206h1.074c.023.281.12.524.29.729.17.202.393.358.669.469.276.11.581.166.916.166.375 0 .708-.066.997-.196.29-.131.517-.313.682-.546.165-.233.247-.503.247-.809 0-.321-.08-.604-.238-.848a1.58 1.58 0 00-.7-.58c-.306-.139-.681-.209-1.124-.209h-.699v-.937h.699c.346 0 .65-.063.912-.188.264-.125.47-.301.618-.528a1.42 1.42 0 00.225-.801c0-.296-.065-.553-.195-.772a1.344 1.344 0 00-.554-.511 1.795 1.795 0 00-.836-.183 2.2 2.2 0 00-.852.166c-.264.108-.48.266-.648.473a1.234 1.234 0 00-.272.742h-1.023c.017-.458.155-.858.413-1.202a2.598 2.598 0 011.014-.81 3.28 3.28 0 011.385-.29c.54 0 1.003.11 1.39.329a2.3 2.3 0 01.89.856c.207.355.311.739.311 1.151 0 .491-.129.91-.388 1.257a1.97 1.97 0 01-1.044.72v.068c.552.091.982.325 1.292.703.31.375.464.84.464 1.394 0 .474-.13.9-.388 1.278a2.626 2.626 0 01-1.048.886c-.443.216-.947.324-1.513.324zm.779 7.648l-.753.213a1.417 1.417 0 00-.21-.366c-.09-.12-.213-.22-.369-.298a1.343 1.343 0 00-.6-.117c-.334 0-.612.077-.835.231-.22.151-.33.344-.33.579 0 .208.076.372.227.493.152.121.389.221.71.302l.81.199c.488.118.851.299 1.09.543.24.242.36.553.36.934 0 .313-.09.592-.27.838a1.792 1.792 0 01-.747.583c-.32.142-.69.213-1.115.213-.556 0-1.016-.121-1.381-.363-.365-.241-.595-.594-.692-1.058l.795-.199c.076.294.219.514.43.661.213.147.49.22.834.22.39 0 .7-.083.93-.249.233-.168.349-.369.349-.603a.634.634 0 00-.2-.476c-.132-.13-.335-.227-.61-.291l-.91-.213c-.499-.119-.866-.302-1.1-.551-.232-.251-.348-.564-.348-.941 0-.308.086-.58.26-.817a1.77 1.77 0 01.713-.557 2.505 2.505 0 011.03-.203c.54 0 .963.119 1.271.356.31.236.53.549.66.937zm3.648 4.347c-.526 0-.98-.116-1.36-.348a2.34 2.34 0 01-.878-.98c-.203-.422-.305-.912-.305-1.471 0-.558.102-1.051.305-1.477.206-.428.493-.762.86-1.001.369-.242.8-.363 1.292-.363.284 0 .565.048.842.142.277.095.53.249.756.462.228.211.409.49.544.838.135.348.202.777.202 1.286v.355h-4.204v-.725h3.352c0-.307-.062-.582-.185-.823a1.384 1.384 0 00-.518-.572 1.45 1.45 0 00-.789-.21 1.5 1.5 0 00-.866.249 1.631 1.631 0 00-.558.639 1.88 1.88 0 00-.195.845v.483c0 .412.071.761.213 1.048.145.284.344.5.6.65.256.146.553.22.892.22.22 0 .419-.031.596-.093.18-.063.335-.158.465-.284.13-.127.231-.286.302-.475l.81.227a1.795 1.795 0 01-.43.724c-.201.206-.45.367-.746.483a2.757 2.757 0 01-.997.171zm3.533-.114v-5.455h.81v.824h.056c.1-.27.28-.489.54-.657a1.59 1.59 0 01.88-.252 7.131 7.131 0 01.441.014v.853a2.428 2.428 0 00-.195-.032 1.876 1.876 0 00-.316-.025c-.265 0-.502.056-.71.167a1.226 1.226 0 00-.668 1.111v3.452h-.838zm8.347-5.455l-2.017 5.455h-.852l-2.017-5.455h.909l1.505 4.347h.057l1.506-4.347h.909zm3.198 5.569c-.526 0-.979-.116-1.36-.348a2.339 2.339 0 01-.878-.98c-.203-.422-.305-.912-.305-1.471 0-.558.102-1.051.305-1.477a2.41 2.41 0 01.86-1.001c.369-.242.8-.363 1.292-.363.285 0 .565.048.842.142.277.095.529.249.756.462.228.211.409.49.544.838.135.348.202.777.202 1.286v.355H99.1v-.725h3.352c0-.307-.062-.582-.185-.823a1.378 1.378 0 00-.518-.572 1.453 1.453 0 00-.789-.21c-.333 0-.622.083-.866.249a1.631 1.631 0 00-.558.639 1.88 1.88 0 00-.195.845v.483c0 .412.071.761.213 1.048.145.284.345.5.6.65.256.146.553.22.892.22.22 0 .419-.031.596-.093.18-.063.335-.158.465-.284.131-.127.231-.286.302-.475l.81.227a1.785 1.785 0 01-.43.724c-.201.206-.45.367-.745.483a2.76 2.76 0 01-.998.171zm3.533-.114v-5.455h.81v.824h.057c.099-.27.279-.489.539-.657.261-.168.554-.252.881-.252a7.151 7.151 0 01.44.014v.853a2.362 2.362 0 00-.195-.032 1.874 1.874 0 00-.316-.025c-.265 0-.502.056-.71.167a1.221 1.221 0 00-.668 1.111v3.452h-.838zm7.584-4.233l-.752.213a1.449 1.449 0 00-.21-.366c-.09-.12-.213-.22-.369-.298a1.347 1.347 0 00-.6-.117c-.334 0-.612.077-.835.231-.22.151-.33.344-.33.579 0 .208.076.372.227.493.152.121.388.221.71.302l.81.199c.488.118.851.299 1.09.543.239.242.359.553.359.934 0 .313-.09.592-.27.838a1.793 1.793 0 01-.746.583 2.722 2.722 0 01-1.115.213c-.556 0-1.017-.121-1.381-.363-.365-.241-.596-.594-.693-1.058l.796-.199c.075.294.219.514.429.661.213.147.492.22.835.22.391 0 .701-.083.93-.249.232-.168.348-.369.348-.603a.633.633 0 00-.199-.476c-.132-.13-.336-.227-.61-.291l-.909-.213c-.5-.119-.867-.302-1.101-.551-.232-.251-.348-.564-.348-.941 0-.308.086-.58.259-.817.175-.236.413-.422.714-.557a2.505 2.505 0 011.03-.203c.539 0 .963.119 1.271.356.31.236.53.549.66.937zm10.429-7.767v-.767l2.881-3.153c.338-.37.617-.691.835-.964.219-.275.381-.534.486-.775.108-.244.162-.5.162-.767a1.413 1.413 0 00-.818-1.317 1.936 1.936 0 00-.852-.183c-.336 0-.628.069-.878.209a1.442 1.442 0 00-.576.575c-.133.247-.2.537-.2.869h-1.006c0-.511.118-.96.354-1.346.236-.387.557-.688.963-.904a2.903 2.903 0 011.377-.324c.511 0 .964.108 1.359.324.395.216.705.507.929.874.224.366.337.774.337 1.223 0 .321-.059.635-.175.942-.114.304-.313.643-.597 1.018-.281.372-.672.827-1.172 1.364l-1.96 2.096v.069h4.057v.937h-5.506zm3.728 7.767l-.753.213a1.42 1.42 0 00-.21-.366c-.09-.12-.213-.22-.369-.298a1.341 1.341 0 00-.6-.117c-.334 0-.612.077-.835.231-.22.151-.33.344-.33.579 0 .208.076.372.227.493.152.121.389.221.711.302l.809.199c.488.118.851.299 1.09.543.24.242.359.553.359.934 0 .313-.09.592-.27.838a1.787 1.787 0 01-.746.583 2.722 2.722 0 01-1.115.213c-.556 0-1.016-.121-1.381-.363-.365-.241-.595-.594-.692-1.058l.795-.199c.076.294.219.514.43.661.213.147.491.22.834.22.391 0 .701-.083.931-.249.232-.168.348-.369.348-.603a.636.636 0 00-.199-.476c-.133-.13-.336-.227-.611-.291l-.909-.213c-.5-.119-.867-.302-1.101-.551-.232-.251-.348-.564-.348-.941 0-.308.086-.58.259-.817.175-.236.413-.422.714-.557a2.505 2.505 0 011.03-.203c.54 0 .963.119 1.271.356.31.236.53.549.661.937zm3.648 4.347c-.526 0-.979-.116-1.361-.348a2.345 2.345 0 01-.877-.98c-.203-.422-.305-.912-.305-1.471 0-.558.102-1.051.305-1.477.206-.428.493-.762.86-1.001.369-.242.8-.363 1.292-.363.284 0 .565.048.842.142.277.095.529.249.756.462.228.211.409.49.544.838.135.348.202.777.202 1.286v.355h-4.204v-.725h3.352c0-.307-.062-.582-.185-.823a1.385 1.385 0 00-.518-.572 1.453 1.453 0 00-.789-.21c-.333 0-.622.083-.866.249a1.634 1.634 0 00-.558.639c-.13.263-.195.545-.195.845v.483c0 .412.071.761.213 1.048.144.284.345.5.6.65.256.146.553.22.892.22.22 0 .419-.031.596-.093.18-.063.335-.158.465-.284.131-.127.231-.286.302-.475l.81.227a1.796 1.796 0 01-.43.724c-.201.206-.45.367-.746.483a2.755 2.755 0 01-.997.171zm3.533-.114v-5.455h.81v.824h.056c.1-.27.28-.489.54-.657.261-.168.554-.252.881-.252a7.197 7.197 0 01.44.014v.853a2.362 2.362 0 00-.195-.032 1.882 1.882 0 00-.316-.025c-.265 0-.502.056-.71.167a1.221 1.221 0 00-.668 1.111v3.452h-.838zm8.347-5.455l-2.017 5.455h-.852l-2.017-5.455h.909l1.505 4.347h.057l1.506-4.347h.909zm3.198 5.569c-.526 0-.979-.116-1.36-.348a2.34 2.34 0 01-.878-.98c-.203-.422-.305-.912-.305-1.471 0-.558.102-1.051.305-1.477.206-.428.493-.762.86-1.001.369-.242.8-.363 1.292-.363.285 0 .565.048.842.142.277.095.529.249.756.462.228.211.409.49.544.838.135.348.202.777.202 1.286v.355H143.1v-.725h3.352c0-.307-.062-.582-.185-.823a1.378 1.378 0 00-.518-.572 1.453 1.453 0 00-.789-.21c-.333 0-.622.083-.866.249a1.634 1.634 0 00-.558.639c-.13.263-.195.545-.195.845v.483c0 .412.071.761.213 1.048.145.284.345.5.6.65.256.146.553.22.892.22.22 0 .419-.031.596-.093.18-.063.335-.158.465-.284.131-.127.231-.286.302-.475l.81.227a1.785 1.785 0 01-.43.724c-.201.206-.45.367-.745.483a2.76 2.76 0 01-.998.171zm3.533-.114v-5.455h.81v.824h.057c.099-.27.279-.489.539-.657.261-.168.554-.252.881-.252a7.151 7.151 0 01.44.014v.853a2.362 2.362 0 00-.195-.032 1.874 1.874 0 00-.316-.025c-.265 0-.502.056-.71.167a1.221 1.221 0 00-.668 1.111v3.452h-.838zm7.584-4.233l-.752.213a1.449 1.449 0 00-.21-.366c-.09-.12-.213-.22-.369-.298a1.347 1.347 0 00-.6-.117c-.334 0-.612.077-.835.231-.22.151-.33.344-.33.579 0 .208.076.372.227.493.152.121.388.221.71.302l.81.199c.488.118.851.299 1.09.543.239.242.359.553.359.934 0 .313-.09.592-.27.838a1.793 1.793 0 01-.746.583 2.722 2.722 0 01-1.115.213c-.556 0-1.017-.121-1.381-.363-.365-.241-.596-.594-.693-1.058l.796-.199c.075.294.219.514.429.661.213.147.492.22.835.22.391 0 .701-.083.93-.249.232-.168.348-.369.348-.603a.633.633 0 00-.199-.476c-.132-.13-.336-.227-.61-.291l-.909-.213c-.5-.119-.867-.302-1.101-.551-.232-.251-.348-.564-.348-.941 0-.308.086-.58.259-.817.175-.236.413-.422.714-.557a2.505 2.505 0 011.03-.203c.539 0 .963.119 1.271.356.31.236.53.549.66.937z" fill="#E7A5B9"/><path d="M170.193 326.898v8.727h-1.845v-6.976h-.051l-1.999 1.253v-1.636l2.161-1.368h1.734zm.638 16.828l-1.385.085a.726.726 0 00-.153-.32.8.8 0 00-.309-.23 1.034 1.034 0 00-.451-.089c-.234 0-.432.05-.593.149-.161.097-.241.227-.241.391 0 .13.052.24.156.33.104.09.283.162.536.217l.988.198c.53.109.925.284 1.186.526.26.241.39.559.39.952 0 .357-.105.671-.316.941-.208.27-.495.48-.859.632-.362.149-.78.224-1.254.224-.722 0-1.297-.151-1.726-.451a1.76 1.76 0 01-.749-1.236l1.488-.078c.045.22.154.388.327.504.173.114.394.17.664.17.265 0 .478-.051.639-.152.163-.105.246-.238.249-.402a.421.421 0 00-.174-.337c-.114-.09-.289-.159-.526-.206l-.945-.188c-.532-.107-.929-.291-1.189-.554-.258-.263-.387-.598-.387-1.005 0-.351.094-.652.284-.906.192-.253.46-.448.806-.586.348-.137.755-.206 1.222-.206.688 0 1.231.146 1.626.437.398.291.63.688.696 1.19zm3.563 4.006c-.561 0-1.044-.114-1.449-.341a2.336 2.336 0 01-.931-.973c-.217-.422-.326-.92-.326-1.495 0-.561.109-1.054.326-1.478.218-.423.525-.754.92-.99.398-.237.864-.356 1.399-.356.36 0 .695.058 1.005.174.313.114.585.286.817.515.234.23.417.519.547.867.13.345.195.75.195 1.214v.416h-4.606v-.938h3.182c0-.218-.047-.41-.142-.579a1.022 1.022 0 00-.394-.394 1.126 1.126 0 00-.579-.145 1.137 1.137 0 00-1.023.582c-.099.175-.15.371-.152.586v.891c0 .27.049.503.149.7.102.196.245.348.43.454.184.107.403.16.657.16.168 0 .322-.023.461-.071a.953.953 0 00.359-.213.935.935 0 00.227-.348l1.399.092a1.9 1.9 0 01-.437.881 2.184 2.184 0 01-.845.583c-.343.137-.74.206-1.189.206zm3.49-.107v-5.455h1.467v.952h.057c.099-.338.266-.594.501-.767.234-.175.504-.263.809-.263a2.156 2.156 0 01.476.054v1.342a2.743 2.743 0 00-.639-.082c-.223 0-.421.049-.597.146a1.071 1.071 0 00-.561.987v3.086h-1.513zm9.343-5.455l-1.906 5.455h-1.705l-1.907-5.455h1.598l1.133 3.903h.057l1.129-3.903h1.601zm3.085 5.562c-.561 0-1.044-.114-1.449-.341a2.336 2.336 0 01-.931-.973c-.217-.422-.326-.92-.326-1.495 0-.561.109-1.054.326-1.478.218-.423.525-.754.92-.99.398-.237.864-.356 1.399-.356.36 0 .695.058 1.005.174.313.114.585.286.817.515.234.23.417.519.547.867.13.345.195.75.195 1.214v.416h-4.606v-.938h3.182c0-.218-.047-.41-.142-.579a1.022 1.022 0 00-.394-.394 1.126 1.126 0 00-.579-.145 1.137 1.137 0 00-1.023.582c-.099.175-.15.371-.152.586v.891c0 .27.049.503.149.7.102.196.245.348.43.454.184.107.403.16.657.16.168 0 .321-.023.461-.071a.953.953 0 00.359-.213.935.935 0 00.227-.348l1.399.092a1.9 1.9 0 01-.437.881 2.184 2.184 0 01-.845.583c-.343.137-.74.206-1.189.206zm3.49-.107v-5.455h1.467v.952h.057c.099-.338.266-.594.501-.767.234-.175.504-.263.809-.263a2.156 2.156 0 01.476.054v1.342a2.743 2.743 0 00-.639-.082 1.21 1.21 0 00-.597.146 1.071 1.071 0 00-.561.987v3.086h-1.513z" fill="#fff"/></svg>