<svg version="1.1" viewBox="0 0 149.27 49.581" xmlns="http://www.w3.org/2000/svg"><path d="M71.396 36.054c-.558.394-1.702.732-2.944.732-2.28 0-3.307-1.751-3.264-3.788.036-1.688 1.088-3.601 3.936-3.601l2.272-.001v6.658zm-2.345-18.722c-2.706 0-5.142.765-7.644 2.008l-.64.33 1.525 3.4.859-.407c1.772-.793 3.66-1.325 5.358-1.253 2.055.085 2.896 1.027 2.896 2.993v1.154h-3.36c-5.402 0-8.763 2.863-8.86 7.309 0 4.224 3.522 7.86 8.419 7.86 3.951 0 7.3-1.281 9.555-3.54V25.13c0-5.87-4.19-7.798-8.108-7.798zm80.22 19.439v3.565s-1.198.229-2.167.229c-4.528 0-7.23-2.133-7.23-7.114V12.446l5.685-.968V33.82c0 1.726.495 2.759 2.857 2.943.322.023.855.008.855.008zm-24.936-10.606c.096-2.188 1.007-4.436 3.246-4.436 2.52 0 2.892 2.733 2.892 4.436zm4.472 10.58c-1.554 0-2.603-.51-3.291-1.252-1.02-1.102-1.473-3.368-1.35-5.776h12.227v-.562c-.11-8.004-2.838-11.65-8.812-11.65-6.667 0-9.263 6.133-9.312 11.896-.041 3.646 1.334 7.316 3.848 9.407 1.53 1.272 3.654 1.977 6.115 1.977 1.34 0 2.742-.2 4.02-.595 2.453-.76 4.263-2.074 4.263-2.074l-1.6-3.29c-.287.217-2.735 1.919-6.108 1.919zm-12.532.047v3.514s-1.049.208-2.162.208c-4.63 0-7.394-2.236-7.394-6.964V12.442l5.813-.933v6.236h3.741v4.169h-3.74V33.79c0 1.555.48 2.898 2.918 2.984.33.011.762.011.824.017zM81.404 18.658l5.671-.926v22.585h-5.671zm2.894-9.95c.986 0 1.899.384 2.57 1.08a3.496 3.496 0 01.982 2.548c0 2.01-1.582 3.589-3.603 3.589-2.017 0-3.602-1.585-3.602-3.612 0-1.987 1.64-3.605 3.653-3.605zm20.893 9.367l-1.6 3.588s-.914-.293-2.321-.236c-1.523.061-3.124.705-3.877 1.44v17.466h-5.787l.005-18.554c3.445-3.662 7.268-4.392 9.759-4.392 1.72 0 3.2.381 3.821.688zM32.83 0v.063h-.502v.063h-.565v.062h-.502V.25h-.44v.063h-.314v.062h-.314v.063h-.314v.063h-.313v.063h-.314v.063h-.314v.062h-.188v.063h-.25v.063h-.251v.063h-.251V.94h-.188v.063h-.251v.063h-.251v.063h-.252v.062h-.188v.063h-.188v.063h-.188v.063h-.188v.063h-.189v.062h-.188v.063h-.189v.063h-.188v.062h-.188v.063h-.188v.063h-.188v.063h-.188v.063h-.189v.062h-.188v.063h-.125v.063h-.189v.062h-.125v.063h-.188v.063h-.126v.063h-.188v.063h-.189v.062h-.125v.063h-.188v.063h-.126v.063h-.189v.063h-.125v.062h-.188v.063h-.126v.063H22.1v.062h-.126v.063h-.188v.063h-.126V3.2h-.125v.062h-.126v.063h-.125v.063h-.189v.062h-.125v.063h-.126v.063h-.125v.063h-.126v.063h-.188v.062h-.126v.063h-.125v.063h-.126v.063h-.125v.063h-.126v.062h-.126v.063h-.125v.063H19.4v.062h-.126v.063h-.126v.063h-.125v.063h-.125v.063h-.126v.062h-.126v.063h-.125v.063h-.126v.062h-.063v.063h-.125v.063h-.126v.063h-.125v.063h-.126v.062h-.126v.063h-.125v.063h-.063v.062h-.125v.063h-.126v.063h-.126v.063h-.063v.063h-.125v.062h-.125v.063H16.7v.063h-.063v.063h-.126v.063h-.125v.062h-.125v.063h-.126v.063h-.063v.062h-.126v.063h-.125v.063h-.125v.063h-.063v.062h-.126V6.4h-.063v.063h-.125v.062h-.063v.063h-.125v.063h-.126v.063h-.063v.063h-.126v.062h-.062v.063h-.126v.063h-.125v.063h-.063v.063h-.126v.062h-.062v.063h-.126v.063h-.063v.062h-.125v.063h-.126v.063h-.063v.063h-.125v.063h-.063v.062h-.126v.063h-.063v.063h-.125v.062h-.063v.063h-.062v.063h-.126v.063h-.063v.063h-.126v.062h-.062v.063h-.126v.063h-.062v.063h-.063v.062h-.126v.063h-.063v.063h-.125v.063h-.063v.062h-.125v.063h-.063v.063h-.063v.063h-.126v.063h-.063v.062h-.125v.063h-.063v.063h-.062v.062H11.3v.063h-.063v.063h-.063v.063h-.125v.062h-.063v.063h-.063v.063h-.063v.063h-.125v.062h-.063v.063h-.063v.063h-.125v.063h-.063v.062h-.063v.063h-.063v.063h-.125v.063h-.063v.063h-.063v.062H9.92v.063h-.063v.063h-.063v.062h-.126v.063h-.062v.063h-.063v.063H9.48v.063h-.062v.062h-.063v.063h-.126v.063h-.063v.062h-.063v.063h-.062v.063h-.063v.063h-.063v.063H8.79v.062h-.063v.063h-.063v.063h-.063v.063h-.063v.062h-.062v.063H8.35v.063h-.062v.063h-.063v.062h-.063v.063h-.063v.063h-.063v.063h-.125v.063h-.063v.062h-.063v.063h-.062v.063H7.66v.062h-.063v.063h-.063v.063h-.063v.063h-.063v.063h-.062v.062h-.063v.063H7.22v.063h-.063v.062h-.062v.063h-.063v.063h-.063v.063h-.063v.063h-.062v.062H6.78v.063h-.063v.063h-.063v.063h-.126v.063h-.062v.062h-.063v.063H6.34v.063h-.06v.062h-.063v.063h-.063v.063H6.09v.063h-.063v.063h-.063v.062h-.062v.126h-.063v.062h-.063v.063h-.062v.063H5.65v.063h-.063v.063h-.063v.062h-.063v.063H5.4v.063h-.062v.063h-.063v.125H5.21v.063h-.06v.063h-.063v.062h-.063v.063H4.96v.063h-.063v.063h-.063v.063h-.062v.062h-.063v.126h-.063v.062h-.062v.063H4.52v.063h-.063v.063h-.063v.063h-.063v.125H4.27v.063h-.062v.062h-.063v.126H4.08v.063h-.062v.063h-.063v.062h-.063v.126H3.83v.063h-.063v.062h-.063v.126h-.062v.063h-.063v.062h-.063v.063h-.063v.126h-.062v.062h-.063v.063h-.063v.125h-.063v.063h-.063v.063h-.063v.126h-.062v.062h-.062v.126h-.063v.063h-.063v.062h-.062v.126H2.7v.063h-.063v.125h-.063v.063h-.063v.126h-.063v.125h-.063v.063h-.063v.125H2.26v.063h-.063v.126h-.063v.125h-.062v.063h-.064v.125h-.062v.063h-.063v.126H1.82v.125h-.063v.126h-.063v.125h-.062v.063H1.57v.125h-.062v.126h-.063v.126h-.063v.125H1.32v.125h-.063v.126h-.062v.125H1.13v.126h-.063v.125h-.063v.189H.942v.125H.88v.126H.817v.188H.754v.125H.691v.189H.628v.188H.565v.125H.503v.252H.44v.188H.377v.188H.315v.251H.252v.314H.19v.251H.127v.44H.064v.752H0v.69h.063v.629h.063v.313h.062v.251h.063v.251h.063v.188h.062v.189H.44v.188h.063v.126h.063v.125h.063v.125h.063v.126h.062v.126h.063v.125H.88v.125h.062v.063h.063v.126h.063v.063h.063v.125h.063v.063h.063v.126h.062v.062h.063v.063h.063v.063h.063v.062h.062v.063h.063v.063h.063v.063h.063v.063h.063v.062h.062v.063h.063v.063h.063v.062h.063v.063h.063v.063h.062v.063h.063v.063h.063v.062h.063v.063h.062v.063h.126v.062h.063v.063h.125v.063h.063v.063h.125v.063h.063v.062h.126v.063h.063v.063h.125v.063h.063v.063h.125v.062h.063v.063h.126v.063h.126v.062h.188v.063h.125v.063h.126v.063h.188v.063h.126v.062h.125v.063h.251v.063h.314v.062h.314v.063h.314v.063H7.47v-.063h.439v-.063h.377v-.062h.25v-.063h.252v-.063h.188v-.062h.188v-.063h.251V31h.189v-.063h.125v-.063h.188v-.062h.126v-.063h.126v-.063h.187v-.062h.126v-.063h.126v-.063h.125v-.063h.126v-.063h.125v-.062h.126v-.063h.126v-.063h.125v-.063h.125v-.063h.126v-.062h.126v-.063h.125v-.063h.063v-.062h.126v-.063h.062v-.063h.126v-.063h.126v-.063h.062v-.062h.126v-.063h.126v-.063h.062v-.062h.126v-.063h.063v-.063h.125v-.063h.063v-.063h.126v-.062h.063v-.063h.125v-.063h.063v-.062h.125v-.063h.063v-.063h.126v-.063h.063v-.063h.125v-.062h.063v-.063h.062v-.063h.126v-.063h.063v-.063h.063v-.062h.125v-.063h.063v-.063h.125v-.062h.063v-.063h.063v-.063h.126V27.8h.062v-.063h.063v-.062h.125v-.063h.063v-.063h.063v-.062h.126v-.063h.063v-.063h.062v-.063h.126v-.063h.063v-.062h.062v-.063h.126v-.063h.063v-.063h.063v-.062h.062v-.063h.126v-.063h.063v-.063h.063v-.062h.125v-.063h.063v-.063h.063v-.063h.125v-.063h.063v-.062h.063v-.063h.063v-.063h.125v-.062h.063v-.063h.063v-.063h.125v-.063h.063v-.063h.063v-.062h.126v-.063h.062v-.063h.063v-.062h.125v-.063h.063v-.063h.063v-.063h.126v-.063h.063v-.062h.062v-.063h.126v-.063h.062v-.063h.126v-.063h.063v-.062h.063v-.063h.125v-.063h.063v-.062h.125v-.063h.063v-.063h.126v-.063h.063V24.6h.125v-.062h.063v-.063h.126v-.063h.062v-.062h.063v-.063h.126v-.063h.062v-.063h.126v-.063h.063v-.062h.125v-.063h.063v-.063h.126v-.062h.062v-.063h.126v-.063h.063v-.063h.126v-.063h.062v-.062h.126v-.063h.062v-.063h.126v-.063h.063v-.063h.126v-.062h.062v-.063h.063v-.062h.125v-.063h.063v-.063h.126v-.063h.063v-.063h.125v-.062h.063v-.063h.125v-.063h.063v-.062h.126v-.063h.063v-.063h.125v-.063h.063v-.063h.125v-.062h.063v-.063h.126v-.063h.063v-.063h.125v-.063h.063v-.062h.126V21.9h.062v-.063h.126v-.062h.063v-.063h.125v-.063h.063v-.063h.126v-.063h.063v-.062h.125v-.063h.063v-.063h.125v-.062h.063v-.063h.126v-.063h.063v-.063h.125v-.063h.063v-.062h.125v-.063h.063v-.063h.126v-.063h.125v-.062h.063v-.063h.125v-.063h.063v-.063h.126v-.062h.063v-.063h.125v-.063h.063v-.063h.125v-.063h.063v-.062h.126v-.063h.126v-.063h.062v-.062h.126v-.063h.062v-.063h.126v-.063h.126v-.063h.063v-.062h.125v-.063h.063v-.063h.125v-.062h.063v-.063h.126v-.063h.125v-.063h.063v-.063h.126v-.062h.125v-.063h.063v-.063h.126v-.063h.125v-.062H28v-.063h.126v-.063h.125V18.7h.063v-.062h.125v-.063h.126v-.063h.063v-.063h.125v-.063h.126v-.062h.062v-.063h.126v-.063h.126v-.062h.125v-.063h.063v-.063h.125v-.063h.126v-.063h.126v-.062h.063v-.063h.125v-.063h.125v-.062h.126v-.063h.126v-.063h.063v-.063h.125v-.063h.126v-.062h.125v-.063h.126v-.063h.125v-.063h.126v-.063h.126v-.062h.125v-.063h.125v-.062h.126v-.063h.126v-.063h.125v-.063h.063v-.063h.188v-.062h.126v-.063h.126v-.063h.125v-.062h.125v-.063h.189v-.063h.125v-.063h.126v-.063h.125v-.062h.126v-.063h.188v-.063h.126v-.063h.188v-.063h.126v-.062h.188v-.063h.188v-.063h.126v-.062h.188V15.5h.126v-.063h.188v-.063h.25v-.063h.19v-.062h.25v-.063h.188v-.063h.252v-.062h.25v-.063h.314v-.063h.377v-.063h.314v-.063h1.067v-.062h.125v.062h.565v.063h.502v.063h.188v.063h.188v.063h.189v.062h.125v.063h.189v.063h.125v.062h.126v.063h.063v.063h.125v.063h.126v.063h.063v.062h.125v.063h.063v.063h.125v.062h.063v.063h.063v.063h.063v.063h.063v.063h.063v.062h.062v.063h.063v.063h.063v.063h.062v.063h.063v.062h.063v.126h.063v.062h.063v.063h.062v.126h.063v.063h.063v.125h.062v.063h.063v.125h.063v.126h.063v.063h.063v.125h.063v.126h.062v.125h.063v.126h.063v.188h.063v.126h.062v.188h.063v.125h.063v.189h.063v.188h.063v.25h.062v.19h.063v.25h.063v.377h.063v.314h.063v.69h.062v1.569h-.062v.502h-.063v.565h-.063v.314h-.063v.313h-.063v.251h-.062v.314h-.063v.251h-.063v.251h-.063v.188h-.063v.189h-.062v.188h-.063v.251h-.063v.188h-.063v.188h-.062v.189h-.063v.125h-.063v.188h-.063v.126h-.063v.188h-.063v.126h-.062v.188h-.063v.126h-.063v.188h-.062v.126h-.063v.125h-.063v.125h-.063v.126h-.063v.188h-.062v.126h-.063v.125h-.063v.126h-.062v.125h-.063v.063h-.063v.126h-.063v.125h-.063v.125h-.063v.126h-.062v.063h-.063v.125h-.063v.126h-.062v.062h-.063v.126h-.063v.126h-.063v.062h-.063v.126h-.063v.126h-.062v.062h-.063v.126h-.063v.062h-.063v.126h-.062v.063h-.063v.125h-.063v.063h-.063v.125h-.063v.063h-.062v.126h-.063v.062h-.063v.126h-.063v.063h-.063v.063h-.062v.125h-.063v.063H39.8v.062h-.063v.126h-.062v.063h-.063v.063h-.063v.125h-.063v.063h-.063v.125h-.062v.063h-.063v.063h-.063v.063h-.063v.125h-.062v.063h-.063v.063h-.063v.062h-.063v.126h-.063v.063h-.063v.062h-.062v.063h-.063v.126h-.063v.063h-.062v.062h-.063v.063h-.063v.063h-.063v.125h-.063v.063h-.063v.063h-.062v.063h-.063v.062h-.063v.126h-.062v.062h-.063v.063h-.063v.063h-.063v.063h-.063v.063h-.062v.062h-.063v.063h-.063v.126h-.062v.062h-.063v.063h-.063v.063h-.063v.063h-.063v.062h-.063v.063H37.1v.063h-.063v.063h-.063v.125h-.063v.063h-.062v.062h-.063v.063h-.063v.063h-.063v.063h-.063v.063h-.062v.062h-.063v.063h-.063v.063h-.063v.063h-.063v.062h-.062v.063h-.063v.063h-.063v.063h-.063v.062h-.062v.063h-.063v.063h-.063v.063h-.063v.063h-.063v.062h-.063v.063h-.062v.063h-.063v.062h-.063v.063h-.062v.063h-.063v.063h-.063v.063h-.063v.062h-.063v.063h-.063v.063h-.062v.062h-.063v.063h-.063v.063h-.062v.063h-.063v.063h-.063v.062h-.063v.063h-.063v.063h-.063v.063h-.062v.063H34.4v.062h-.063v.063h-.125v.063h-.063v.062h-.063v.063h-.063v.063h-.062v.064h-.063v.063h-.063v.062h-.062v.063h-.063v.063h-.063v.062h-.126v.063h-.063v.063h-.062v.063h-.063v.063h-.063v.062h-.063v.063h-.062v.063h-.063v.063h-.126v.062h-.063v.063h-.062v.063h-.063v.063h-.063v.062h-.063v.063h-.063v.063h-.125v.063h-.063v.063h-.063v.062h-.062v.063h-.063v.063h-.126v.062h-.063v.063h-.063v.063h-.062v.063h-.063v.063h-.125v.062h-.063v.063h-.063v.063h-.063v.062h-.063v.063h-.125v.063h-.063v.063h-.063v.063h-.062v.062h-.126v.063h-.063v.063h-.063v.063h-.063v.062h-.125v.063h-.063v.063h-.062v.063h-.063v.062h-.126v.063h-.063v.063h-.063v.063h-.062v.063h-.126v.062h-.062v.063h-.063v.063h-.126v.062h-.063v.063h-.062v.063h-.126v.063h-.063v.063h-.062v.062h-.126v.063h-.063v.063h-.063v.062h-.125v.063H29v.063h-.063v.063h-.125v.063h-.063v.062h-.063v.063h-.125v.063h-.063v.063h-.126v.063h-.063v.062h-.063v.063h-.125v.063h-.063v.062h-.125v.063h-.063v.063h-.126v.063h-.063v.063h-.062v.062h-.126v.063h-.062v.063h-.126v.062h-.063v.063h-.126v.063h-.062v.063h-.126v.063h-.062v.062h-.126v.063h-.063v.063h-.126v.063h-.062v.062h-.126v.063h-.062v.063h-.126v.062h-.126v.063h-.063v.063h-.125v.063h-.063v.063h-.125v.062h-.126v.063h-.063v.063h-.125v.062h-.063v.063h-.126v.063h-.125v.063h-.126v.063h-.062v.062h-.126v.063h-.126v.063h-.063v.062h-.125v.063h-.125v.063h-.126v.063h-.063v.063h-.126v.062h-.125v.063h-.125v.063h-.126v.063h-.126v.063h-.063v.062h-.125v.063h-.125v.063h-.126v.062h-.126v.063h-.125v.063h-.126v.063h-.125v.063h-.126v.062h-.188v.063h-.126v.063h-.125v.062h-.126v.063h-.125v.063h-.189v.063h-.125v.063h-.188v.062h-.126v.063h-.189v.063h-.188v.063h-.125v.062h-.251v.063h-.189v.063h-.188v.063h-.25v.062h-.315v.063h-.44v.063h-.627v-.063h-.25v-.063h-.189v-.062h-.126v-.063h-.125v-.063h-.063v-.063h-.062v-.062h-.063v-.063h-.063v-.126h-.063v-.125h-.063v-.126H17.2v-.187h-.062v-.628h.062v-.314h.063v-.188h.063v-.188h.063v-.126h.063v-.126h.063v-.125h.062v-.126h.063v-.125h.063v-.126h.062v-.063h.063v-.126h.063v-.125h.063v-.063h.063v-.125h.063v-.063h.062v-.125h.063v-.063h.063v-.126h.062v-.063h.063v-.062h.063v-.126h.063v-.062h.063v-.063h.063v-.126h.062v-.063h.063v-.063h.063v-.125h.063v-.063h.062v-.062h.063v-.063h.063V42.8h.063v-.126h.063v-.062h.062v-.063h.063v-.063h.063v-.062h.063v-.063h.063v-.126h.062v-.063h.063v-.062h.063v-.063h.063v-.063h.062v-.063h.063v-.063h.063v-.062h.063v-.063h.063v-.063h.062v-.125h.063v-.063h.063v-.063h.062v-.062h.063v-.063h.063v-.063h.063v-.062h.063v-.063h.063v-.063h.062v-.063h.063v-.063h.063v-.063h.062v-.062h.063v-.063h.063v-.063h.063v-.063h.063v-.062h.063v-.063h.062v-.063h.063v-.063h.063v-.062h.062v-.063h.063v-.063h.063v-.063h.063v-.063h.063v-.062h.063v-.063h.062v-.063h.063v-.062h.063v-.063h.062v-.063h.063v-.063h.063v-.063h.063v-.062h.063v-.063h.063v-.063h.062v-.062h.063v-.063h.063v-.063h.063v-.063h.062v-.063h.063v-.062h.063v-.063h.063v-.063h.063v-.063h.062v-.062h.063v-.063h.063v-.063h.063v-.063h.063v-.062h.062v-.063h.063v-.063h.063v-.063h.063v-.063h.125v-.062h.063v-.126h.063v-.062h.063v-.063h.063v-.063h.062v-.063h.063v-.063h.063v-.062h.062v-.063h.063v-.063h.063v-.062h.063v-.063h.063v-.126h.063v-.063h.062v-.062h.063v-.063h.063v-.063h.062v-.063h.063v-.125h.063v-.063h.063v-.063h.063v-.125h.062v-.063h.063v-.063h.063v-.063h.062v-.125h.063v-.063h.063v-.125h.063v-.063h.063v-.126h.063v-.125h.062v-.063h.063v-.125h.063v-.125h.062v-.063h.063v-.189h.063v-.188h.063v-.188h.063v-.126h.063v-.94h-.063v-.252h-.063v-.189h-.063v-.062H25.8v-.125h-.063v-.063h-.062v-.126h-.063v-.063h-.063v-.062h-.062v-.063h-.063v-.063h-.063v-.063h-.063v-.063h-.063v-.062h-.063v-.063h-.125v-.063h-.063v-.062h-.125v-.063h-.063v-.063h-.126v-.063h-.125v-.063h-.125v-.062h-.126v-.063h-.189v-.063h-.188v-.062h-.125v-.063h-.189v-.063h-.314v-.063h-.25v-.063h-.377v-.062h-.565v-.063h-.063v.063h-1.13v.062h-.376v.063h-.314v.063h-.188v.063h-.188v.063h-.251v.062h-.188v.063h-.126v.063h-.126v.062h-.125v.063h-.188v.063h-.126v.063h-.126v.063h-.125v.062h-.126v.063h-.062v.063h-.126v.062h-.063v.063h-.125v.063h-.063v.063h-.126v.063h-.063v.062h-.062v.063h-.126v.063h-.063v.063h-.125v.063h-.063v.062H17.2v.063h-.063v.063h-.063v.062h-.062v.063h-.126v.063h-.062v.063h-.063v.063h-.063v.062h-.063v.063h-.063v.062h-.063v.063h-.062v.063h-.063v.063h-.063v.063h-.062v.062h-.063v.063h-.063v.063h-.063v.063h-.063v.063h-.063v.125h-.062v.063h-.063v.062h-.063v.063h-.062v.063h-.063v.126h-.063v.062h-.063v.063h-.063v.063h-.063v.062h-.062v.063h-.063v.126h-.063v.063h-.062v.125h-.063v.063h-.063v.125h-.063v.063h-.063v.126h-.063v.062h-.062v.126h-.063v.063h-.063v.125h-.062v.063h-.063v.125h-.063v.063h-.063v.126h-.063v.062h-.062v.126h-.063v.125h-.063v.126h-.063v.125h-.063v.126h-.062v.126h-.063v.125h-.063v.063h-.063v.125h-.062v.126h-.063v.125h-.063v.126h-.063v.125h-.063v.126h-.063v.126h-.062v.125h-.063v.125h-.063v.189h-.062v.125h-.063v.126h-.063v.188h-.063v.125h-.063v.126h-.063v.188h-.062v.126h-.063v.125h-.063v.189h-.062v.125h-.063v.188h-.063v.189h-.063v.188h-.063v.188h-.063v.251h-.062v.189h-.063v.188h-.063v.25h-.062v.44h-.063v.44h-.063v.502h-.063v.062h.063v1.256h.063v.25h.063v.252h.062v.314h.063v.25h.063v.126h.062v.126h.063v.188h.063v.125h.063v.126h.063v.125h.063v.126h.062v.125h.063v.063h.063v.125h.062v.063h.063v.126h.063v.063h.063v.062h.063v.126h.063v.062h.062v.063h.063v.126h.125v.063h.063v.062h.063v.063h.063v.063h.063v.062h.063v.063h.062v.063h.063v.063h.063v.063h.063v.062h.062v.063h.126v.063h.063v.063h.125v.063h.063v.062h.126v.063h.063v.063h.125v.062h.063v.063h.125v.063h.126v.063h.126v.063h.125v.062h.188v.063h.189v.063h.188v.062h.314v.063h.376v.063h.628v.063h1.004v-.063h.753v-.063h.44v-.063h.376v-.062h.314v-.063h.314v-.063h.25v-.062h.251v-.063h.252v-.063h.188v-.063h.188v-.063h.251v-.062h.189v-.063h.187v-.063h.189v-.062h.188v-.063h.126v-.063h.188v-.063h.188v-.063h.126v-.062h.188v-.063h.126v-.063h.188v-.063h.126v-.062h.188v-.063h.125v-.063h.126v-.062h.126v-.063h.188v-.063h.125v-.063h.126v-.063h.126v-.062h.125v-.063h.125v-.063h.126v-.062h.188v-.063h.126v-.063h.126v-.063h.125v-.063h.126v-.062h.062v-.063h.126v-.063h.126v-.063h.125v-.063h.126v-.062h.125v-.063h.126v-.063h.126v-.062h.062v-.063h.126v-.063h.125v-.063h.126v-.063h.126v-.062h.062v-.063h.126v-.063h.125v-.062h.126V46h.063v-.063h.125v-.063h.126v-.063h.062v-.062h.126v-.063h.126v-.063h.063v-.063h.125v-.06h.126v-.063h.062v-.063H29v-.063h.063v-.062h.125v-.063h.126v-.063h.063v-.063h.125v-.063h.063v-.062h.125v-.063h.126v-.063h.063v-.062h.126v-.063h.062v-.063h.126v-.063h.062v-.063h.126v-.062h.063v-.063h.126v-.063h.062v-.062h.126v-.063h.062v-.063h.126v-.063h.063v-.063h.126v-.062h.062v-.063h.063v-.063h.125v-.063h.063v-.062h.126v-.063h.063v-.063h.125v-.063h.063v-.062h.125v-.063h.063v-.063h.063v-.063h.126v-.063h.063v-.063h.062v-.062h.126v-.063h.063v-.063h.125v-.062h.063V42.8h.063v-.063h.125v-.063h.063v-.063h.063v-.062h.126v-.063h.062v-.063h.126v-.062h.062v-.063h.063v-.063h.126v-.063h.063v-.063h.063v-.062h.125v-.063h.063v-.063h.062v-.063h.063v-.062h.126v-.063h.063v-.063h.063v-.062h.125v-.063h.063v-.063h.062v-.063h.126v-.063h.063v-.062h.063v-.063h.063v-.063h.125v-.062h.063v-.063h.062v-.063h.126v-.063h.063v-.063h.063v-.063h.063v-.062h.125v-.063h.063v-.063h.062v-.062h.063v-.063h.126v-.063h.063v-.063h.063v-.063h.062v-.062h.126v-.063h.063V40.1h.062v-.063h.063v-.063h.063v-.062h.126v-.063h.062v-.063h.063v-.062h.063v-.063h.126v-.063h.062v-.063h.063v-.063h.063v-.062h.063v-.063h.125v-.063h.063v-.062h.063v-.063h.063v-.063h.063v-.063h.125v-.063h.063v-.062h.062v-.063h.063v-.063h.063v-.062h.063v-.063h.125v-.063h.063v-.063h.063v-.063h.062v-.062h.063v-.063h.063v-.063h.126v-.063h.063v-.063h.062v-.062h.063v-.063h.063v-.063h.062v-.062h.063v-.063h.126v-.063h.063v-.063h.063v-.063h.062v-.062h.063v-.063h.063v-.063h.063v-.062h.062v-.063h.063v-.063h.126v-.063h.063v-.063h.062v-.062h.063v-.063h.063v-.063h.063V36.9h.062v-.062h.063v-.063h.063v-.063h.063v-.063h.063v-.062h.062v-.063h.063v-.063h.063v-.063h.063v-.063h.063v-.062h.062v-.063h.063v-.063h.063v-.062h.063v-.063h.062v-.063h.063v-.063h.063v-.063h.063v-.062h.063v-.063h.063v-.063h.062v-.062h.063v-.063h.063v-.063h.062v-.063h.063v-.063h.063v-.062h.063v-.063h.063v-.063h.063v-.063h.062v-.063h.063v-.125h.063v-.063h.062v-.062h.063v-.063h.063v-.063h.063v-.063h.063v-.063h.062v-.062h.063v-.063h.063v-.063h.062v-.125h.063v-.063h.063v-.063h.063v-.063h.063v-.062h.063v-.063h.062v-.126h.063V33.7H43v-.063h.063v-.063h.062v-.063h.063v-.063h.063v-.125h.063v-.063h.063v-.063h.062v-.062h.063v-.063h.063v-.125h.063v-.063h.063v-.063h.062v-.126h.063v-.062h.063v-.063h.063v-.063h.062v-.125h.063v-.063h.063v-.063h.063v-.063h.063v-.125h.063v-.063h.062v-.063h.063v-.125h.063v-.063h.062v-.063h.063v-.125h.063v-.063h.063v-.063h.063v-.125h.063v-.063h.062v-.125h.063v-.063h.063V31h.062v-.126h.063v-.062h.063v-.126h.063v-.062h.063v-.063h.063v-.126h.062v-.063h.063v-.125h.063v-.063h.062v-.126h.063v-.062h.063v-.126h.063v-.062h.063v-.126h.063v-.063h.062v-.125h.063v-.063h.063v-.125h.062v-.126h.063v-.063h.063v-.125h.063v-.063h.063v-.125h.063v-.126h.062v-.063h.063v-.125h.063v-.126h.062v-.063h.063v-.124h.063v-.126h.063v-.063h.063v-.125h.062v-.126h.063v-.125h.063v-.063h.063v-.125h.063v-.126h.062v-.125h.063v-.126h.063v-.125h.063v-.126h.062v-.063h.063v-.125h.063v-.126h.063v-.125h.063v-.126h.063v-.125h.062v-.126h.063v-.125h.063v-.126h.062v-.125h.063v-.189h.063v-.125h.063v-.126h.063v-.125h.063v-.125h.062v-.126h.063v-.126h.063v-.188h.062v-.125h.063v-.189h.063v-.125h.063v-.188h.063v-.126h.063v-.188h.062v-.126h.063v-.188h.063v-.125h.062v-.189h.063v-.188h.063v-.188h.063v-.189h.063v-.188h.063v-.188h.062v-.188h.063v-.189h.063V21.4h.062v-.251h.063v-.251h.063v-.188h.063v-.251h.063v-.252h.063v-.25h.062v-.314h.063v-.314h.063v-.314h.062v-.314h.063v-.376h.063v-.502h.063v-.502h.063v-.816h.063V14.56h-.063v-1.193h-.063v-.502h-.063v-.376h-.063v-.377h-.063v-.376h-.062v-.377h-.063v-.314h-.063v-.188h-.062v-.188h-.063v-.251h-.063v-.189h-.063v-.188h-.063v-.25h-.063v-.189h-.063v-.188h-.062v-.189h-.063V9.1h-.063v-.125h-.062v-.189h-.063v-.125h-.063v-.126h-.063v-.126h-.063v-.188h-.063v-.125h-.062V7.97h-.063v-.125h-.063v-.126h-.062v-.125h-.063v-.126h-.063v-.063h-.063V7.28h-.063v-.063h-.062v-.125h-.063v-.126h-.063v-.063h-.062v-.125h-.063v-.126h-.063V6.59H48.4v-.125h-.063v-.062h-.068v-.126h-.062v-.063h-.063V6.15h-.063v-.125h-.062v-.063h-.063v-.063h-.063v-.062h-.063V5.71h-.063v-.063h-.063v-.062h-.062v-.063h-.063v-.126h-.063v-.063h-.063v-.062h-.062v-.063h-.063v-.063h-.063V5.02h-.063v-.063h-.063v-.063h-.062v-.063h-.063v-.063h-.063v-.063h-.063v-.062h-.125V4.58H46.7v-.063h-.063v-.062h-.063v-.063h-.062V4.33h-.063v-.063h-.063v-.063h-.063v-.062h-.063v-.063h-.063v-.063h-.062v-.062h-.063V3.89h-.063v-.063h-.125v-.063h-.063v-.063h-.063V3.64h-.126v-.063h-.062v-.063h-.063v-.063h-.125V3.39h-.063v-.063h-.063v-.063h-.126V3.2h-.063v-.063h-.062v-.063h-.063v-.062h-.125V2.95h-.126v-.063h-.063v-.063h-.125v-.062h-.126v-.063h-.062v-.063h-.126v-.063h-.063V2.51H44v-.063h-.125v-.062h-.063v-.063h-.125v-.063h-.126v-.063h-.126v-.062h-.125V2.07h-.126v-.063h-.125v-.063h-.126v-.063h-.125V1.82h-.126v-.062h-.126v-.063h-.125v-.062h-.126V1.57h-.188v-.062h-.126v-.063h-.188V1.38h-.125v-.063h-.189v-.063h-.188v-.063h-.125V1.13h-.189v-.062H40.8v-.063h-.188V.94h-.188V.879h-.252V.816h-.188V.753h-.188V.69h-.251V.627h-.251V.564h-.251V.501h-.314V.44h-.251V.376h-.314V.314h-.376V.25h-.377V.188h-.377V.125h-.564V.063h-.565V0z" fill="#fff"/></svg>