<svg enable-background="new 0 0 191.8 43.8" version="1.1" viewBox="0 0 191.8 43.8" xml:space="preserve" xmlns="http://www.w3.org/2000/svg"><path d="m33.7 24.1c1.6 1.6 1.6 4.2 0 5.8s-4.2 1.6-5.8 0l-11.8-12c-0.4-0.4-0.5-1.1-0.1-1.6s1.2-0.6 1.7-0.2c0 0 0.1 0 0.1 0.1l11.9 11.9c0.6 0.6 1.6 0.7 2.3 0.1s0.8-1.7 0.2-2.4l-6.4-6.4c-0.5-0.5-0.5-1.2 0-1.7s1.2-0.5 1.7 0l6.2 6.4zm-20.4-9.5c0.9-1.4 2.5-2.1 4.1-2 1.1 0.1 2.1 0.6 2.9 1.4l0.6 0.6c0.5 0.5 1.2 0.5 1.6 0s0.5-1.2 0-1.6l-0.5-0.8c-2.5-2.8-6.9-3-9.6-0.5s-3 6.9-0.5 9.6c0.1 0.2 0.3 0.3 0.5 0.5l6.4 6.4c0.5 0.5 1.2 0.5 1.6 0s0.5-1.2 0-1.6l-6.5-6.5c-1.1-1.1-1.5-2.6-1.2-4.1 0.1-0.4 0.3-1 0.6-1.4zm10 16.8c-0.4 0.5-0.3 1.1 0.1 1.5l7.1 7.1c0.4 0.4 1.1 0.4 1.5 0 0.5-0.4 0.5-1.1 0.1-1.6l-7.2-7.2c-0.4-0.4-1.1-0.5-1.6 0v0.2zm-14.9-5.7 12.3 12.3c0.4 0.5 1.2 0.6 1.7 0.2s0.6-1.2 0.2-1.7l-0.2-0.2-12.2-12.3c-2.9-2.9-3.6-7.3-1.8-11 0.2-0.5 0.1-1-0.2-1.4-0.5-0.5-1.2-0.5-1.7 0-0.1 0.1-0.2 0.2-0.2 0.3-2.4 4.6-1.5 10.1 2.1 13.8zm24.9 8c-0.5 0.5-0.5 1.2 0 1.7l5.5 5.5c0.5 0.4 1.3 0.3 1.7-0.2 0.4-0.4 0.4-1.1 0-1.5l-5.5-5.5c-0.4-0.5-1.2-0.5-1.7 0zm3.4-3.4 3.6 3.6c0.5 0.4 1.3 0.3 1.7-0.2 0.4-0.4 0.4-1.1 0-1.5l-3.6-3.6c-0.4-0.5-1.2-0.6-1.7-0.2s-0.6 1.2-0.2 1.7c0 0.1 0.1 0.1 0.2 0.2zm6.9-0.7c0.4 0.4 1.1 0.4 1.6 0 0.4-0.4 0.4-1.1 0-1.6l-5.9-5.9c-0.4-0.4-1.1-0.4-1.6 0-0.4 0.4-0.4 1.1 0 1.6l5.9 5.9zm-10.1-20.4c-0.5-0.4-1.3-0.4-1.7 0.1s-0.4 1.1 0 1.6l9.8 9.6c0.5 0.4 1.3 0.4 1.7-0.1s0.4-1.1 0-1.6l-9.8-9.6zm-18.3 29.6c0.7 0 1.2-0.6 1.2-1.2 0-0.3-0.1-0.6-0.4-0.9l-5.4-5.4c-0.4-0.5-1.2-0.6-1.7-0.2s-0.6 1.2-0.2 1.7c0.1 0.1 0.1 0.2 0.2 0.2l5.4 5.4c0.2 0.3 0.5 0.4 0.9 0.4zm4.9 5c0.7 0 1.2-0.6 1.2-1.2 0-0.3-0.1-0.6-0.4-0.9l-1-1c-0.5-0.4-1.3-0.3-1.7 0.2-0.4 0.4-0.4 1.1 0 1.5l1 1c0.2 0.2 0.5 0.4 0.9 0.4zm5.6-35.4c-3.6-3.6-9.1-4.5-13.7-2.3-0.6 0.3-0.9 1-0.6 1.6 0.1 0.1 0.1 0.2 0.2 0.3 0.4 0.4 1 0.5 1.4 0.3 3.7-1.7 8-1 10.9 1.9l8 8c0.4 0.5 1.2 0.5 1.7 0.1s0.6-1.2 0.2-1.7l-0.1-0.1-8-8.1zm-20 20.9c-0.3 0-0.6-0.1-0.8-0.3-6.6-6.6-6.6-17.2 0-23.8l0.3-0.3c6.6-6.5 17.2-6.5 23.8 0 0.4 0.4 0.4 1.2 0 1.6s-1.2 0.4-1.6 0c-5.7-5.7-14.9-5.7-20.6 0l-0.3 0.3c-5.7 5.7-5.7 14.9 0 20.6 0.5 0.4 0.5 1.1 0.1 1.5-0.2 0.3-0.6 0.4-0.9 0.4z"/><path class="st0" d="m56.1 7.6992c-0.3 0-0.59961 0.30156-0.59961 0.60156v15.299c0 0.3 0.29961 0.60117 0.59961 0.70117 0.1 0 0.30039-0.10117 0.40039-0.20117s0.19922-0.20039 0.19922-0.40039v-1.6992c0.5 0.6 1.1004 1.1996 1.9004 1.5996 2.1 1.1 4.7004 0.60039 6.4004-1.0996 2.2-2.2 2.2-5.7996 0-8.0996-1.6-1.8-4.2004-2.1996-6.4004-1.0996-0.7 0.4-1.4004 0.89961-1.9004 1.5996v-6.5996c0-0.2-0.099219-0.30039-0.19922-0.40039s-0.20039-0.20117-0.40039-0.20117zm57.4 0c-0.3 0-0.59961 0.30156-0.59961 0.60156v15.398 0.10156c0.1 0.3 0.29961 0.39844 0.59961 0.39844h0.09961c0.1-0.1 0.20117-0.099219 0.20117-0.19922 0.1 0 0.09961-0.099219 0.09961-0.19922v-6.5c0-0.9 0.39961-1.8004 1.0996-2.4004 1.5-1.3 3.6992-1.3 5.1992 0 0.7 0.6 1.1016 1.5004 1.1016 2.4004v6.3984c0 0.3 0.29961 0.60156 0.59961 0.60156 0.1 0 0.30039-0.10117 0.40039-0.20117s0.19922-0.20039 0.19922-0.40039v-6.3984c0-1.2-0.50039-2.5008-1.4004-3.3008-0.9-0.9-2.2-1.3008-3.5-1.3008s-2.6 0.60117-3.5 1.7012v-6.0996c0-0.2-0.09922-0.30039-0.19922-0.40039s-0.20039-0.20117-0.40039-0.20117zm17.4 0.10156c-0.2 1e-7 -0.30039 0.099219-0.40039 0.19922s-0.19922 0.30039-0.19922 0.40039v4.1992h-1.4004c-0.3 0-0.5 0.10078-0.5 0.30078v0.29883c0 0.2-3.9e-4 0.30039 0.09961 0.40039s0.2 0.09961 0.5 0.09961h1.4004v8.4004c0 0.5 0.19961 1.0004 0.59961 1.4004 0.3 0.4 0.90039 0.59961 1.4004 0.59961 0.2 0 0.30039-0.099218 0.40039-0.19922s0.19922-0.20039 0.19922-0.40039-0.09922-0.30039-0.19922-0.40039-0.20039-0.19922-0.40039-0.19922-0.4-0.10117-0.5-0.20117c-0.2-0.1-0.30078-0.39961-0.30078-0.59961v-8.4004h1.5c0.2 0 0.40039-0.19844 0.40039-0.39844 0.1-0.3-0.10039-0.60117-0.40039-0.70117l-1.5996 0.09961v-4.2988c0-0.2-0.09922-0.30039-0.19922-0.40039s-0.20039-0.19922-0.40039-0.19922zm-44.201 1.0996c-0.3 0-0.59961 0.29961-0.59961 0.59961v0.5c0 0.2 0.001172 0.30039 0.20117 0.40039 0.1 0.1 0.19844 0.19922 0.39844 0.19922 0.1 0 0.30039-0.099218 0.40039-0.19922s0.20117-0.20039 0.20117-0.40039v-0.5c0-0.2-0.10117-0.30039-0.20117-0.40039s-0.20039-0.19922-0.40039-0.19922zm-12.787 3.5762c-0.037109 0.003516-0.073828 0.010938-0.11133 0.023438-0.3 0.1-0.50039 0.39922-0.40039 0.69922v10.4c0.1 0 0.099218 0.10117 0.19922 0.20117 0.1 0.3 0.40117 0.49844 0.70117 0.39844 0.3-0.1 0.49844-0.39922 0.39844-0.69922v-5.0996-0.20117c0.3-1 0.80039-1.8992 1.4004-2.6992 0.7-1.1 2.0008-1.8004 3.3008-1.9004h0.19922c0.3-0.1 0.50039-0.39922 0.40039-0.69922-0.1-0.3-0.39922-0.50039-0.69922-0.40039-1.9 0-3.7016 1.1008-4.6016 2.8008-0.1 0.1-0.19922 0.19883-0.19922 0.29883v-2.5-0.19922c-0.0875-0.2625-0.32812-0.44844-0.58789-0.42383zm25.893 0.11328c-1.415 0.006836-2.8047 0.58594-3.8047 1.7109-2.1 2.3-2.1 5.7996 0 8.0996 0.9 1.1 2.3008 1.6992 3.8008 1.6992 1.7 0 3.2988-0.79922 4.2988-2.1992v1.4004c0 1.1-0.49883 2.2-1.2988 3s-1.9 1.1992-3 1.1992c-0.7 0-1.3004-0.10039-1.9004-0.40039-0.1-0.1-0.10117-0.099609-0.20117-0.099609-0.3-0.1-0.49961 7.82e-4 -0.59961 0.30078-0.2 0.3-0.098827 0.59883 0.20117 0.79883 0.8 0.3 1.5984 0.5 2.3984 0.5 3 0 5.4004-2.4004 5.4004-5.4004v-10c0-0.1-0.10039-0.29844 0.09961-0.39844-0.1-0.1-0.29844-0.20117-0.39844-0.20117-0.2 0-0.30039 0.10117-0.40039 0.20117s-0.20117 0.19844-0.20117 0.39844v1.6016c-0.5-0.6-1.1984-1.2016-1.8984-1.6016-0.7875-0.4125-1.6471-0.61348-2.4961-0.60938zm-13.105 0.060547c-0.15 0-0.29844 0.05039-0.39844 0.15039s-0.20117 0.29844-0.20117 0.39844v10.4c0 0.3 0.29961 0.59961 0.59961 0.59961 0.1 0 0.30039-0.099219 0.40039-0.19922s0.20117-0.20039 0.20117-0.40039v-10.4c0-0.2-0.10117-0.29844-0.20117-0.39844s-0.25039-0.15039-0.40039-0.15039zm88.102 0c-0.15 0-0.30039 0.05039-0.40039 0.15039s-0.20117 0.29844-0.20117 0.39844v10.602c0.1 0.2 0.3 0.39844 0.5 0.39844h0.10156c0.1 0 0.19844-0.099219 0.39844-0.19922 0.2 0 0.30078-0.20039 0.30078-0.40039v-6.2988c-0.1-0.9 0.3-1.8 1-2.5 1.4-1.4 3.6-1.4 5 0 0.6 0.6 1 1.5 1 2.5v6.2988 0.09961 0.10156l0.19922 0.19922 0.20117 0.099609h0.09961c0.1 0 0.20078 3.91e-4 0.30078-0.099609s0.19922-0.20078 0.19922-0.30078v-6.2988c-0.1-0.9 0.3-1.8 1-2.5l0.09961-0.09961c1.3-1.3 3.6004-1.3004 4.9004 0.09961 0.7 0.6 1.0996 1.5 1.0996 2.5v6.2988c0 0.2 0.10117 0.30039 0.20117 0.40039s0.29844 0.20117 0.39844 0.20117c0.2 0 0.30039-0.10117 0.40039-0.20117s0.20117-0.30039 0.20117-0.40039v-6.2988c0-0.8-0.30117-1.7004-0.70117-2.4004-1.3-2.2-4.2004-2.8996-6.4004-1.5996-0.7 0.5-1.2992 1.0988-1.6992 1.7988-0.4-0.8-0.99922-1.3988-1.6992-1.7988-0.7-0.5-1.5004-0.70117-2.4004-0.70117-1.3-0.1-2.6 0.50156-3.5 1.6016v-1.1016c0-0.2-0.10117-0.29844-0.20117-0.39844s-0.24844-0.15039-0.39844-0.15039zm-12.762 0.041015c-1.4248 0.013178-2.8305 0.59336-3.8398 1.709-2.1 2.3-2.1 5.7996 0 8.0996 0.2 0.1 0.30039 0.20039 0.40039 0.40039 2.2 1.9 5.5004 1.6996 7.4004-0.40039 2.1-2.3 2.1-5.7996 0-8.0996-0.1-0.2-0.30039-0.30039-0.40039-0.40039-1.0312-0.89062-2.3034-1.3202-3.5606-1.3086zm-15.738 0.007813c-1.5 0-2.9 0.60117-4 1.7012l-0.10156 0.099609c-2.2 2.2-2.1984 5.8 0.10156 8 2.1 2 5.3988 2.1996 7.7988 0.59961 0.3-0.3 0.29961-0.49883 0.09961-0.79883l-0.09961-0.10156c-0.2-0.3-0.49922-0.29961-0.69922-0.09961-0.9 0.7-1.9996 1-3.0996 1-1.2 0-2.4012-0.39883-3.2012-1.2988l-0.09961-0.10156c-1.8-1.8-1.7004-4.6984 0.09961-6.3984 0.8-0.9 2.0012-1.4004 3.2012-1.4004 1.1-0.1 2.1996 0.3 3.0996 1h0.09961c0.2 0.2 0.49922 0.10039 0.69922-0.09961 0.1-0.1 0.10156-0.20039 0.10156-0.40039 0-0.2-0.10117-0.30039-0.20117-0.40039-1.1-0.9-2.3988-1.3008-3.7988-1.3008zm-46.721 0.95117c1.1839-0.05625 2.377 0.39336 3.2207 1.3496 0.9 0.9 1.2988 2.1008 1.2988 3.3008s-0.49883 2.3988-1.2988 3.2988l-0.30078 0.30078c-1.7 1.5-4.3008 1.3992-5.8008-0.30078-0.9-0.9-1.2988-2.0988-1.2988-3.2988s0.39883-2.3008 1.2988-3.3008l0.30078-0.30078c0.74375-0.65625 1.6593-1.0051 2.5801-1.0488zm62.52 0.048828c1.2 0 2.2996 0.50039 3.0996 1.4004 1.7 1.9 1.7 4.6996 0 6.5996l-0.29883 0.30078c-1.7 1.5-4.3008 1.3992-5.8008-0.30078-1.7-1.9-1.7-4.6996 0-6.5996 0.7-0.9 1.8-1.4004 3-1.4004zm-100.68 0.089843c1.1125-0.024169 2.127 0.4668 2.877 1.3105 1.7 1.8 1.7 4.7 0 6.5l-0.20117 0.20117c-1.7 1.6-4.4996 1.4988-6.0996-0.20117-0.8-0.8-1.3008-1.9992-1.3008-3.1992v-0.20117c0-1.2 0.50039-2.2996 1.4004-3.0996 0.8-0.8 1.8996-1.2988 3.0996-1.2988 0.075-0.00625 0.15044-0.010107 0.22461-0.011719z"/></svg>
