<?xml version="1.0" standalone="no"?>
<!DOCTYPE svg PUBLIC "-//W3C//DTD SVG 20010904//EN"
 "http://www.w3.org/TR/2001/REC-SVG-20010904/DTD/svg10.dtd">
<svg version="1.0" xmlns="http://www.w3.org/2000/svg"
 width="106.000000pt" height="40.000000pt" viewBox="0 0 106.000000 40.000000"
 preserveAspectRatio="xMidYMid meet">

<g transform="translate(0.000000,40.000000) scale(0.100000,-0.100000)"
fill="#000000" stroke="none">
<path d="M471 369 c-14 -11 -39 -19 -62 -19 -22 0 -39 -5 -39 -11 0 -12 44 -8
85 7 19 7 19 6 3 -12 -15 -15 -34 -18 -115 -19 -109 -1 -143 -13 -187 -66 -29
-34 -30 -56 -4 -73 13 -8 25 -4 55 20 21 17 48 36 61 43 29 15 29 41 -1 41
-25 0 -97 -45 -97 -61 0 -5 15 1 33 14 38 29 77 43 77 28 0 -6 -6 -11 -12 -11
-7 0 -33 -16 -57 -35 -33 -27 -47 -32 -57 -24 -22 18 9 64 59 88 33 16 62 21
125 21 93 0 125 9 147 44 23 35 15 49 -14 25z"/>
<path d="M213 334 c-57 -21 -113 -84 -113 -128 0 -73 56 -86 136 -31 28 20 73
41 100 49 27 7 58 17 68 21 30 13 10 -13 -28 -36 -17 -10 -24 -19 -16 -19 26
0 59 29 80 70 l20 40 -36 -25 c-37 -25 -41 -26 -110 -44 -23 -6 -58 -25 -79
-41 -46 -37 -76 -45 -104 -30 -42 22 -17 102 44 140 20 12 68 28 108 35 70 13
71 13 22 13 -27 0 -69 -6 -92 -14z"/>
<path d="M55 259 c-19 -17 -35 -36 -35 -43 0 -6 10 2 23 18 l23 28 0 -57 c-1
-50 2 -59 27 -81 16 -13 33 -21 39 -18 5 3 -1 11 -13 18 -48 24 -58 88 -23
144 20 31 1 27 -41 -9z"/>
<path d="M517 263 c-15 -53 -16 -73 -7 -73 5 0 10 14 10 30 0 17 5 30 10 30 6
0 10 -6 10 -13 0 -17 27 -54 34 -47 10 11 24 90 15 90 -5 0 -9 -13 -9 -29 0
-43 -14 -45 -29 -5 -13 37 -27 44 -34 17z"/>
<path d="M737 273 c-3 -5 -7 -26 -8 -48 -4 -37 -2 -40 24 -43 15 -2 27 1 27 7
0 6 -9 11 -20 11 -14 0 -20 7 -20 23 0 31 11 44 40 50 22 4 21 4 -7 6 -17 0
-34 -2 -36 -6z"/>
<path d="M612 248 c-6 -6 -12 -25 -12 -40 0 -23 4 -28 25 -28 14 0 25 5 25 10
0 6 -9 10 -21 10 -27 0 -22 34 6 38 20 3 20 3 0 -13 l-20 -17 20 4 c12 2 20
11 20 23 0 23 -25 31 -43 13z"/>
<path d="M676 228 c-6 -32 7 -59 21 -43 5 4 3 10 -3 12 -17 6 -4 43 15 43 14
0 14 2 1 10 -23 15 -27 12 -34 -22z"/>
<path d="M810 250 c0 -5 7 -7 15 -4 8 4 15 1 15 -4 0 -6 -10 -12 -22 -14 -33
-4 -32 -43 1 -43 19 0 26 7 32 29 5 16 6 33 3 38 -7 11 -44 10 -44 -2z m30
-40 c0 -5 -7 -10 -15 -10 -8 0 -15 5 -15 10 0 6 7 10 15 10 8 0 15 -4 15 -10z"/>
<path d="M882 248 c-18 -18 -15 -28 8 -28 11 0 20 -4 20 -10 0 -5 -9 -10 -20
-10 -11 0 -20 -5 -20 -11 0 -21 45 -4 48 19 3 17 -2 22 -20 23 -20 1 -21 2 -3
6 30 7 43 23 19 23 -11 0 -25 -5 -32 -12z"/>
<path d="M953 253 c-7 -2 -13 -20 -13 -39 0 -30 3 -34 25 -34 14 0 25 5 25 10
0 6 -9 10 -20 10 -13 0 -20 7 -20 20 0 14 7 20 23 20 22 -1 22 -1 2 -16 l-20
-16 20 4 c12 2 20 11 20 23 0 20 -19 28 -42 18z"/>
<path d="M768 233 c7 -3 16 -2 19 1 4 3 -2 6 -13 5 -11 0 -14 -3 -6 -6z"/>
<path d="M244 155 c-27 -19 -57 -35 -66 -35 -10 0 -18 -5 -18 -11 0 -16 39 -1
95 37 44 30 51 32 64 19 13 -13 13 -18 -5 -42 -12 -15 -39 -37 -62 -48 -48
-24 -55 -39 -11 -23 38 13 99 72 99 96 0 20 -18 42 -35 42 -6 0 -34 -16 -61
-35z"/>
<path d="M0 160 c0 -30 25 -75 56 -99 28 -22 105 -38 126 -25 8 6 -8 11 -46
15 -71 8 -117 46 -118 97 -1 35 -18 45 -18 12z"/>
<path d="M360 143 c0 -36 -64 -95 -121 -112 -24 -7 -53 -17 -64 -21 -20 -8
-20 -9 1 -9 60 -2 163 60 188 113 18 39 20 56 6 56 -5 0 -10 -12 -10 -27z"/>
<path d="M503 158 c-6 -7 -13 -30 -17 -50 l-7 -38 36 0 c28 0 37 5 44 23 5 14
4 25 -3 29 -16 11 -36 10 -36 -2 0 -5 7 -10 15 -10 8 0 15 -7 15 -15 0 -9 -9
-15 -25 -15 -21 0 -25 5 -25 30 0 35 34 56 59 36 11 -9 13 -8 9 4 -6 19 -52
25 -65 8z"/>
<path d="M37 141 c6 -22 53 -70 53 -54 0 5 -9 18 -20 28 -11 10 -20 24 -20 32
0 7 -4 13 -9 13 -5 0 -7 -9 -4 -19z"/>
<path d="M281 136 c-18 -22 -81 -49 -131 -57 l-45 -6 43 -2 c23 0 57 5 75 13
40 18 84 53 76 61 -3 3 -11 -1 -18 -9z"/>
<path d="M610 131 l25 -8 -25 -4 c-36 -6 -42 -49 -7 -49 25 0 37 16 37 51 0
14 -7 19 -27 18 l-28 -1 25 -7z m10 -36 c0 -8 -7 -15 -15 -15 -16 0 -20 12 -8
23 11 12 23 8 23 -8z"/>
<path d="M655 109 c-4 -17 -4 -33 -1 -36 3 -4 9 8 12 25 8 42 24 41 25 0 l1
-33 8 29 c11 34 6 46 -20 46 -12 0 -21 -10 -25 -31z"/>
<path d="M725 105 c0 -19 3 -35 8 -35 4 0 7 16 7 35 0 19 -3 35 -7 35 -5 0 -8
-16 -8 -35z"/>
<path d="M760 114 c-13 -33 -5 -44 28 -43 24 2 24 2 5 6 -16 3 -23 11 -23 29
0 18 5 24 23 24 22 -1 22 -1 2 -16 -20 -16 -20 -16 0 -12 11 2 21 11 23 21 6
30 -46 22 -58 -9z"/>
<path d="M835 130 c-8 -14 3 -30 21 -30 23 0 16 -18 -8 -23 -21 -4 -20 -4 3
-6 33 -1 49 28 19 36 -27 7 -25 21 3 26 19 4 19 4 -5 6 -15 0 -30 -3 -33 -9z"/>
</g>
</svg>
