<svg version="1.1" viewBox="0 0 187.65 121.2" xmlns="http://www.w3.org/2000/svg">
  <path d="m169.56 121c-3.0736-0.55532-5.7826-2.0097-7.9833-4.286-2.6306-2.7209-4.0277-6.1198-4.2214-10.269-0.13378-2.8661 0.32484-5.2183 1.4934-7.6594 0.84157-1.758 1.4188-2.5809 2.848-4.0605 2.1924-2.2695 4.3847-3.5327 7.642-4.4032 1.3254-0.3542 4.4875-0.48339 6.1864-0.25276 3.6441 0.49469 7.0175 2.269 9.1549 4.8152 0.74669 0.88951 1.7215 2.3694 1.618 2.4564-0.0286 0.024-0.69046 0.46938-1.4708 0.98964l-1.4188 0.94594-0.75574-1.1126c-1.3961-2.0553-3.2832-3.5751-5.3935-4.3436-1.4929-0.5437-2.8149-0.72063-4.81-0.64373-1.466 0.0565-1.891 0.12743-3.0094 0.50223-3.9853 1.3356-6.9737 4.7216-7.9624 9.0218-0.15395 0.66953-0.21234 1.5495-0.20413 3.0763 0.01 1.8395 0.0589 2.3182 0.35084 3.4241 1.1963 4.5322 4.3006 7.6243 8.5834 8.5497 1.3319 0.28779 3.9578 0.22687 5.1847-0.12027 3.9072-1.1055 6.4559-4.1183 7.2295-8.5456l0.0759-0.43438h-11.22v-3.2099l15.036 0.069 0.069 15.17h-1.3376c-0.73572 0-1.3377-0.0151-1.3377-0.0335 0-0.044-0.91186-4.3511-1.0072-4.7574-0.0659-0.28091-0.14064-0.21794-0.71923 0.60595-1.0574 1.5057-2.5094 2.7583-4.0952 3.5329-1.8231 0.89044-3.2558 1.1867-5.6727 1.173-0.99239-6e-3 -2.2762-0.0955-2.8528-0.19967zm-159.8-13.754v-13.432h-9.7568v-3.3414h23.523v3.3414h-9.8904v26.865h-3.876zm17.509-1.6751v-15.115l7.4512 0.0542c8.1132 0.059 8.1495 0.0621 10.235 0.87184 3.4334 1.3332 5.4927 4.4876 5.2522 8.0451-0.14993 2.2176-0.90643 3.8889-2.4042 5.3114-1.0799 1.0257-2.5383 1.8496-4.0947 2.3134-0.55132 0.16426-1.0193 0.31203-1.0399 0.32836-0.0206 0.0163 1.6825 2.9305 3.7848 6.4759s3.8547 6.5307 3.8944 6.6341c0.0601 0.15666-0.28077 0.18782-2.0472 0.1871l-2.1194-8.7e-4 -7.8715-13.096h-7.1621l-0.0694 13.031-3.8092 0.0742zm15.504-1.5674c1.6406-0.55262 2.7646-1.5766 3.2974-3.0044 0.3352-0.89807 0.29388-3.044-0.0771-4.0046-0.56312-1.4582-1.7936-2.4592-3.6881-3.0004-0.67835-0.1938-1.6-0.23715-5.981-0.28126l-5.1791-0.0522v10.728l5.3796-0.0464c5.1142-0.0441 5.4225-0.0608 6.2484-0.33903zm10.314 16.552c0.0245-0.0675 2.9014-6.8651 6.3932-15.106l6.3486-14.983 3.9728 0.0726 6.3336 14.952c3.4835 8.2234 6.3336 15.006 6.3336 15.073 0 0.0691-0.87256 0.10559-2.0256 0.0846l-2.0256-0.0369-3.6026-8.7568-14.063 0.0692-3.5913 8.7544h-2.059c-1.1926 0-2.0403-0.0516-2.0145-0.12264zm20.233-12.341c-2.1462-5.1715-5.4196-13.226-5.4196-13.336 0-0.25022-0.23379-0.0141-0.31791 0.32113-0.0441 0.17579-1.2838 3.2448-2.7547 6.82-1.471 3.5752-2.6745 6.5294-2.6745 6.5649s2.5531 0.0645 5.6735 0.0645h5.6735zm12.757-2.6388v-15.128l5.7137 0.0633c6.2348 0.0691 6.8092 0.12537 9.2811 0.90968 5.171 1.6407 8.5282 5.3107 9.68 10.582 0.28522 1.3054 0.39085 4.4227 0.19873 5.865-0.52976 3.977-2.1897 7.039-5.071 9.3542-1.8169 1.4599-4.076 2.4581-6.9718 3.0805-1.1343 0.24379-1.8863 0.27975-7.0503 0.3371l-5.7806 0.0642zm11.577 11.557c3.0243-0.51969 5.5653-1.8751 7.0741-3.7734 0.75487-0.94973 1.7044-2.8849 1.9856-4.0466 0.3887-1.606 0.52831-3.5973 0.36244-5.1699-0.20689-1.9615-0.47317-2.9709-1.156-4.3818-1.0547-2.1794-2.3218-3.4501-4.5398-4.5528-0.66159-0.32892-1.8043-0.75648-2.5394-0.95015-1.2555-0.33076-1.5656-0.35576-5.1123-0.4121l-3.7758-0.06v23.551h3.257c2.3122 0 3.6014-0.0592 4.444-0.20396zm18.896-11.558v-15.103h3.876v30.206h-3.876zm10.826 4e-3v-15.107h4.084l7.6814 11.248c4.2248 6.1865 7.9667 11.734 8.3155 12.327l0.63417 1.0792 0.0682-24.588 3.6755-0.0744v30.214h-3.9535l-7.4793-10.97c-4.1136-6.0338-7.8549-11.579-8.314-12.323l-0.83464-1.3521-0.0682 24.578-3.8092 0.0742v-15.107zm11.561-27.749c-2.3028-0.40533-4.6911-1.3397-6.5238-2.5523-1.2696-0.84003-3.3838-2.8993-4.2231-4.1134-1.361-1.9688-2.3252-4.357-2.7479-6.8057-0.26187-1.5173-0.26357-4.3889-3e-3 -5.8804 1.428-8.1888 8.5438-13.845 17.424-13.849 5.0653-2e-3 9.505 1.6886 12.588 4.7947 1.0755 1.0834 2.2675 2.6669 2.2621 3.0051-1e-3 0.0835-0.28699 0.34083-0.63485 0.57181-0.34784 0.23098-1.4193 0.96295-2.381 1.6266l-1.7485 1.2066-0.65725-1.0066c-2.5032-3.8337-7.6414-5.6758-12.419-4.4523-4.9347 1.2638-8.0861 5.5353-8.0861 10.96 0 6.7054 4.7208 11.38 11.16 11.051 3.3559-0.17151 5.752-1.3678 7.2623-3.6259 0.60989-0.91186 1.3585-2.7608 1.3585-3.3554 0-0.16586-0.78478-0.19359-5.4798-0.19359h-5.4798v-4.9452h17.511l-0.0688 17.175h-4.2546l-0.66544-2.1556-0.66543-2.1556-0.62733 0.75218c-1.7148 2.056-3.9018 3.3479-6.6157 3.9081-1.4702 0.30344-4.6719 0.32386-6.2841 0.0401zm-138.31-0.41082c-0.0494-0.0494-0.0898-7.2972-0.0898-16.106v-16.016h23.523v5.4798h-16.974v7.2174h15.638v5.6135h-15.638v8.4202h17.247l-0.0724 5.413-11.772 0.0341c-6.4746 0.0188-11.812-6e-3 -11.862-0.0557zm29.671-6.6e-4c-0.049-0.0491-0.0891-7.2975-0.0891-16.108v-16.019l6.7133 0.0714 7.1459 10.282c3.9302 5.655 7.4118 10.736 7.7367 11.291l0.59076 1.0092v-22.649h6.2818v32.211l-6.4823-0.0019-7.1912-10.421c-3.9552-5.7315-7.4736-10.905-7.8188-11.497l-0.62763-1.0755-0.0684 22.994h-3.051c-1.6781 0-3.0911-0.0401-3.1401-0.0891zm35.419 6.6e-4c-0.0494-0.0494-0.0898-7.2972-0.0898-16.106v-16.016h23.662l-0.0724 5.413-17.041 0.0688v7.2132l15.704 0.069v5.4798l-15.704 0.069v8.4181h17.247l-0.0724 5.413-11.772 0.0341c-6.4746 0.0188-11.812-6e-3 -11.862-0.0557zm29.715-16.017v-16.105h8.2101c8.6401 0 9.4193 0.0421 11.422 0.61714 2.0013 0.57458 3.2668 1.2903 4.5728 2.586 1.2536 1.2438 1.8056 2.1789 2.2119 3.7469 0.2892 1.1162 0.28655 3.2346-6e-3 4.4608-0.45491 1.9093-1.699 3.753-3.4084 5.0508-0.86596 0.65751-2.9225 1.736-3.6644 1.9216-0.2749 0.0688-0.35323 0.15224-0.29232 0.31139 0.0458 0.11957 1.8537 3.1455 4.0176 6.7244 2.1639 3.5788 3.9344 6.571 3.9344 6.6493 0 0.0972-1.1455 0.14238-3.6116 0.14238h-3.6116l-0.3646-0.57718c-0.20054-0.31744-1.9883-3.2645-3.9728-6.5491l-3.6082-5.9719h-5.414v13.098h-6.4154zm15.882-2.4777c2.6799-0.33603 4.1151-1.5915 4.2684-3.734 0.16482-2.3036-1.0829-3.83-3.5599-4.355-0.66267-0.14046-2.0581-0.18844-5.5308-0.19018l-4.6445-2e-3v8.4202h4.1802c2.2991 0 4.6781-0.0624 5.2866-0.13873zm58.789 18.496c-0.0503-0.0503-0.0915-2.9022-0.0915-6.3377v-6.2462l-5.3593-9.3357c-2.9476-5.1346-5.4786-9.5312-5.6244-9.7701l-0.2651-0.43437 7.1723 6e-3 3.3631 6.112c1.8497 3.3616 3.497 6.4299 3.6606 6.8185l0.29756 0.70656 0.34077-0.77339c0.18743-0.42536 1.8397-3.4949 3.6718-6.8213l3.331-6.0479h3.527c1.9399 0 3.527 0.0324 3.527 0.072s-2.481 4.385-5.5133 9.6566l-5.5132 9.5846-0.1336 12.831-3.1497 0.0358c-1.7323 0.0197-3.1908-5e-3 -3.2411-0.0557z" stroke-width=".13366"/>
  <path d="m51.183 35.274c-3.5266-0.26645-6.5137-1.6773-8.9874-4.2447-2.3761-2.4662-3.6837-5.2092-4.1225-8.6481-0.20905-1.6383-0.20988-7.8203-1e-3 -9.4293 0.32052-2.4721 1.2965-5.0238 2.6435-6.9115 1.8517-2.595 4.6208-4.5484 7.6977-5.4301 1.0001-0.28658 3.5774-0.61005 4.8608-0.61005h0.31473v7.3318l-0.76851 0.0824c-1.6324 0.17497-2.5332 0.36575-3.236 0.68527-1.6976 0.77186-3.0858 2.3049-3.7136 4.1011-0.72949 2.087-0.7283 8.9404 2e-3 10.946 0.59275 1.6277 1.7698 3.0667 3.1865 3.8959 0.69991 0.40962 2.2955 0.83187 3.6275 0.95997l0.90217 0.0868v7.3297l-0.50121-0.0193c-0.27566-0.0106-1.1327-0.0671-1.9046-0.12537zm6.0145-3.5233v-3.6617l0.90217-0.0868c1.4161-0.13619 2.9642-0.56457 3.7503-1.0378 0.88512-0.53278 2.1048-1.815 2.6012-2.7347 0.79913-1.4805 0.93154-2.3965 0.93293-6.4534 9.3e-4 -2.8522-0.046-3.8926-0.20957-4.6448-0.45914-2.111-1.8833-3.9788-3.7232-4.8829-0.9323-0.45816-1.707-0.64357-3.4854-0.8342l-0.76851-0.0824v-7.3318h0.31473c1.2876 0 3.8597 0.3233 4.8608 0.61099 5.6244 1.6162 9.6543 6.4932 10.335 12.507 0.19711 1.7416 0.20363 7.5404 0.0103 9.1352-0.29481 2.4314-1.1142 4.7348-2.3616 6.6388-0.35292 0.53871-1.2478 1.5844-1.9886 2.3239-2.7066 2.7015-5.5363 3.9072-9.667 4.1189l-1.5036 0.0771v-3.6617zm114.48 3.5387c-3.0196-0.19082-5.0943-0.79869-7.1007-2.0804-2.9853-1.9071-4.8154-4.7201-5.1927-7.9815l-0.0889-0.76851h7.0666l0.24191 0.63343c0.2943 0.77062 1.3302 1.829 2.297 2.3469 1.0938 0.58588 2.344 0.79219 4.8484 0.80008 2.4451 8e-3 3.7014-0.19145 4.8967-0.77624 2.3152-1.1327 2.5849-3.9508 0.50433-5.2702-0.86549-0.54888-2.1971-0.86587-6.4813-1.5429-4.9949-0.78932-6.3218-1.201-8.2293-2.5532-3.7111-2.6308-4.9482-8.0838-2.7731-12.223 1.2725-2.4216 3.8269-4.4058 6.7694-5.2586 3.0902-0.89551 7.439-0.75707 10.451 0.33267 1.7457 0.63168 3.0649 1.4794 4.4314 2.8475 1.7249 1.7271 2.6609 3.562 2.9216 5.7276l0.0925 0.76851h-7.0975l-0.2689-0.52709c-0.5599-1.0975-1.8253-1.98-3.3568-2.341-1.0202-0.24046-3.6733-0.27205-4.6932-0.0559-1.3272 0.2813-2.4883 1.0211-2.9148 1.8571-0.47629 0.93362-0.23636 2.4563 0.48845 3.1 0.49901 0.44311 1.5087 0.77737 3.1419 1.0402 5.6822 0.91429 6.7804 1.1124 7.8322 1.4131 5.2248 1.4937 8.186 5.0544 8.186 9.843 0 1.8406-0.26367 3.0465-1.0033 4.5886-1.3735 2.8637-4.4625 5.0577-8.1521 5.79-1.5682 0.31128-4.502 0.43598-6.8164 0.28973zm-169.54-17.515v-16.976l6.6075 0.0716 17.651 21.322 0.0684-21.388h7.2158v33.953l-6.3298-0.0716-17.929-21.647-0.0684 21.714h-7.2158zm74.98-3e-3v-16.979l19.714 0.0784 0.93559 0.31516c3.7241 1.2545 6.2597 3.7961 7.4173 7.435 0.40121 1.2612 0.51309 3.872 0.22415 5.2306-0.24643 1.1587-0.77317 2.505-1.3956 3.5671-0.89426 1.5258-2.9849 3.4449-4.437 4.0729l-0.52623 0.22758 3.6147 6.3486c1.9881 3.4917 3.6456 6.4238 3.6834 6.5157 0.0541 0.1315-0.7951 0.16699-3.9886 0.16669l-4.0574-4e-4 -3.1995-5.6465c-1.7597-3.1056-3.3126-5.8119-3.4507-6.0141l-0.2512-0.36755h-7.0655v12.029h-7.2174v-16.979zm18.93-2.3905c0.79543-0.3612 1.5848-1.1257 1.9789-1.9164 0.38164-0.76586 0.46274-2.003 0.1908-2.9106-0.23378-0.78031-1.0352-1.7258-1.8538-2.187l-0.7351-0.41416-11.427-0.0802v7.7653l5.6469-3e-3c5.2362-3e-3 5.6871-0.0212 6.1998-0.25401zm15.018 2.3954v-16.974h7.2174v26.865h16.707v7.0837h-23.924zm29.538 11.02v-5.9546l-6.0327-10.452c-3.318-5.7483-6.1806-10.707-6.3613-11.02l-0.32861-0.56803h8.1536l4.0522 7.2139c2.3981 4.2692 4.1012 7.1648 4.1724 7.0937 0.0661-0.0661 1.9057-3.2973 4.0881-7.1805l3.968-7.0603 8.1929-0.0706-1.986 3.4435c-1.0923 1.894-3.9469 6.8393-6.3436 10.99l-4.3576 7.5462v11.973h-7.2174z" fill="#848484" stroke-width=".13366"/>
</svg>
