<?xml version="1.0" standalone="no"?>
<!DOCTYPE svg PUBLIC "-//W3C//DTD SVG 20010904//EN"
 "http://www.w3.org/TR/2001/REC-SVG-20010904/DTD/svg10.dtd">
<svg version="1.0" xmlns="http://www.w3.org/2000/svg"
 width="256.000000pt" height="256.000000pt" viewBox="0 0 256.000000 256.000000"
 preserveAspectRatio="xMidYMid meet">

<g transform="translate(0.000000,256.000000) scale(0.100000,-0.100000)"
fill="#000000" stroke="none">
<path d="M1370 1965 c-110 -20 -200 -55 -645 -249 -244 -106 -400 -179 -400
-187 0 -17 932 -422 1008 -439 32 -7 121 -10 234 -8 l181 3 39 31 c37 30 48
51 88 167 20 58 86 126 146 151 136 58 173 79 217 123 58 58 84 111 90 179 6
67 -11 117 -57 167 -69 76 -70 77 -471 76 -254 -1 -376 -5 -430 -14z"/>
<path d="M270 1858 c1 -7 20 -58 44 -113 28 -64 49 -99 57 -97 40 9 189 78
189 88 0 25 -49 122 -65 128 -9 3 -64 6 -121 6 -77 0 -104 -3 -104 -12z"/>
<path d="M357 1412 c-12 -20 -87 -202 -87 -211 0 -12 196 -16 225 -5 16 6 65
103 65 128 0 6 -28 23 -63 37 -34 15 -79 34 -99 43 -20 9 -39 12 -41 8z"/>
<path d="M760 736 c0 -194 -3 -186 72 -186 54 0 94 26 113 72 18 45 19 83 4
127 -17 50 -83 75 -130 51 -18 -10 -19 -7 -19 50 0 53 -2 60 -20 60 -19 0 -20
-7 -20 -174z m135 19 c20 -19 25 -34 25 -75 0 -64 -30 -100 -85 -100 l-35 0 0
90 c0 74 3 91 18 99 28 17 51 13 77 -14z"/>
<path d="M1854 895 c-4 -9 -2 -21 4 -27 15 -15 44 -1 40 19 -4 23 -36 29 -44
8z"/>
<path d="M265 855 c-50 -49 -28 -109 55 -150 50 -25 70 -45 70 -70 0 -44 -27
-54 -150 -57 -80 -2 -115 -7 -118 -15 -3 -10 26 -13 121 -13 120 0 127 1 156
26 23 19 31 34 31 58 0 44 -16 63 -86 99 -55 30 -59 35 -59 67 0 29 5 36 28
44 19 7 37 6 59 -2 25 -9 34 -9 40 1 13 20 -22 37 -74 37 -39 0 -54 -5 -73
-25z"/>
<path d="M494 795 c-3 -8 -4 -57 -2 -109 4 -114 17 -136 83 -136 26 0 48 6 56
16 11 14 13 14 21 0 21 -38 28 -10 28 114 0 109 -2 130 -15 130 -12 0 -15 -17
-15 -95 0 -107 -14 -135 -70 -135 -41 0 -50 23 -50 134 0 80 -3 96 -15 96 -9
0 -18 -7 -21 -15z"/>
<path d="M1022 683 c3 -106 6 -128 18 -128 12 0 16 18 18 95 3 102 15 130 58
130 40 0 54 -35 54 -132 0 -72 3 -88 15 -88 12 0 15 17 15 94 0 87 2 96 22
110 29 20 52 20 72 0 12 -12 16 -38 16 -115 0 -90 2 -100 18 -97 15 3 17 16
17 110 0 90 -3 109 -19 127 -22 25 -81 28 -112 7 -17 -12 -22 -12 -39 0 -22
16 -68 18 -96 4 -13 -7 -19 -7 -19 0 0 5 -9 10 -20 10 -20 0 -20 -5 -18 -127z"/>
<path d="M1448 794 c-16 -8 -28 -19 -28 -24 0 -18 22 -22 39 -6 25 23 67 20
85 -6 29 -41 21 -55 -35 -62 -85 -12 -127 -78 -79 -126 23 -23 76 -26 106 -6
17 12 22 12 39 0 10 -8 25 -14 32 -14 18 0 16 27 -2 34 -12 4 -15 24 -15 91 0
78 -2 88 -25 110 -28 29 -75 32 -117 9z m112 -154 c0 -36 -36 -63 -77 -58 -22
2 -29 9 -31 30 -4 33 29 58 75 58 30 0 33 -3 33 -30z"/>
<path d="M1747 790 c-30 -24 -37 -25 -37 -5 0 8 -7 15 -15 15 -13 0 -15 -21
-15 -125 0 -118 1 -125 20 -125 18 0 20 7 20 84 0 69 4 88 21 110 11 15 30 26
44 26 12 0 25 6 28 14 12 32 -28 35 -66 6z"/>
<path d="M1860 680 c0 -120 2 -131 18 -128 15 3 17 17 17 128 0 111 -2 125
-17 128 -16 3 -18 -8 -18 -128z"/>
<path d="M1984 797 c-2 -7 -3 -65 -2 -127 3 -100 5 -115 21 -118 15 -3 17 7
17 97 0 92 2 101 22 115 32 22 64 20 82 -6 12 -16 16 -47 16 -115 0 -76 3 -93
15 -93 12 0 15 19 15 110 0 97 -2 112 -20 130 -22 22 -78 27 -111 10 -13 -7
-19 -7 -19 0 0 15 -30 12 -36 -3z"/>
<path d="M2289 795 c-37 -20 -52 -64 -47 -135 3 -44 10 -67 25 -81 39 -40 153
-34 153 6 0 18 -5 18 -32 4 -11 -6 -35 -8 -55 -4 -27 5 -38 13 -49 40 -8 19
-14 37 -14 40 0 3 36 5 79 5 88 0 96 6 85 67 -12 63 -83 92 -145 58z m93 -32
c10 -9 18 -27 18 -40 0 -22 -3 -23 -66 -23 -63 0 -65 1 -58 23 16 54 68 74
106 40z"/>
</g>
</svg>
