<svg enable-background="new 0 -0.5 276 41" version="1.1" viewBox="0 0 275 40" xml:space="preserve" xmlns="http://www.w3.org/2000/svg"><g fill="#fff">
<path d="m125.09 19.778c0-12.465-1.29-19.778-13.118-19.778h-13.786v40h13.45c14.403 0 13.454-14.073 13.454-20.222zm-14.682 14.072h-4.075v-27.7h5.036c5.862 0 5.862 6.481 5.862 13.849-1e-3 10.028-1.687 13.851-6.823 13.851z" data-darkreader-inline-fill=""/>
<path d="m194.95 0h-10.133l-10.911 40h8.071l2.142-8.864h11.499l2.233 8.864h8.041zm-9.496 24.984 4.384-16.292h0.11l4.41 16.292z" data-darkreader-inline-fill=""/>
<polygon transform="translate(-.5)" points="9.057 0 0.5 0 9.007 40 18.87 40 25.256 12.245 25.367 12.245 31.858 40 41.964 40 50.425 0 41.744 0 36.72 27.691 36.607 27.691 30.314 0 20.46 0 14.277 27.691 14.166 27.691" data-darkreader-inline-fill=""/>
<polygon transform="translate(-.5)" points="77.455 0 55.363 0 55.363 40 77.902 40 77.902 33.85 63.497 33.85 63.497 22.159 76.394 22.159 76.394 16.01 63.497 16.01 63.497 6.15 77.455 6.15" data-darkreader-inline-fill=""/>
<rect x="83.328" width="8.43" height="39.998" data-darkreader-inline-fill=""/>
<polygon transform="translate(-.5)" points="139.04 10.132 139.15 10.132 147.08 40 154.64 40 162.51 10.132 162.63 10.132 162.63 40 170.53 40 170.54 0 157.6 0 150.92 27.691 150.8 27.691 144.16 0 131 0 131 40 139.04 40" data-darkreader-inline-fill=""/>
<polygon transform="translate(-.5)" points="217.4 10.749 217.51 10.749 228.8 40 239.61 40 239.61 0 231.74 0 231.74 28.691 231.63 28.691 221.24 0 209.52 0 209.52 40 217.4 40" data-darkreader-inline-fill=""/>
<polygon transform="translate(-.5)" points="253.28 40 253.28 10.749 253.39 10.749 264.69 40 275.5 40 275.5 0 267.63 0 267.63 28.691 267.52 28.691 257.12 0 245.41 0 245.41 40" data-darkreader-inline-fill=""/>
</g></svg>
