<svg xmlns="http://www.w3.org/2000/svg" width="575" height="113"><defs xmlns="http://www.w3.org/1999/xhtml"><style type="text/css">text.nonterminal,text.terminal{font-family:-apple-system,BlinkMacSystemFont,&quot;Segoe UI&quot;,Roboto,Ubuntu,Cantarell,Helvetica,sans-serif;font-size:12px}text.terminal{fill:#fff;font-weight:700}text.nonterminal{fill:#e289a4;font-weight:400}.line,polygon,rect{fill:none;stroke:none}.line{stroke:#636273}rect.terminal{fill:none;stroke:#be2f5b}rect.nonterminal{fill:rgba(255,255,255,.1);stroke:none}</style></defs><polygon points="9 17 1 13 1 21"/><polygon points="17 17 9 13 9 21"/><rect x="31" y="3" width="58" height="32" rx="10"/><rect x="29" y="1" width="58" height="32" class="terminal" rx="10"/><text class="terminal" x="39" y="21">DROP</text><rect x="129" y="3" width="62" height="32" rx="10"/><rect x="127" y="1" width="62" height="32" class="terminal" rx="10"/><text class="terminal" x="137" y="21">TABLE</text><a xmlns:xlink="http://www.w3.org/1999/xlink" xlink:href="#tableName" xlink:title="tableName"><rect x="211" y="3" width="88" height="32"/><rect x="209" y="1" width="88" height="32" class="nonterminal"/><text class="nonterminal" x="219" y="21">tableName</text></a><rect x="339" y="35" width="34" height="32" rx="10"/><rect x="337" y="33" width="34" height="32" class="terminal" rx="10"/><text class="terminal" x="347" y="53">IF</text><rect x="393" y="35" width="70" height="32" rx="10"/><rect x="391" y="33" width="70" height="32" class="terminal" rx="10"/><text class="terminal" x="401" y="53">EXISTS</text><rect x="129" y="79" width="44" height="32" rx="10"/><rect x="127" y="77" width="44" height="32" class="terminal" rx="10"/><text class="terminal" x="137" y="97">ALL</text><rect x="193" y="79" width="72" height="32" rx="10"/><rect x="191" y="77" width="72" height="32" class="terminal" rx="10"/><text class="terminal" x="201" y="97">TABLES</text><rect x="523" y="3" width="24" height="32" rx="10"/><rect x="521" y="1" width="24" height="32" class="terminal" rx="10"/><text class="terminal" x="531" y="21">;</text><path class="line" d="M17 17h2m0 0h10m58 0h10m20 0h10m62 0h10m0 0h10m88 0h10m20 0h10m0 0h134m-164 0h20m144 0h20m-184 0q10 0 10 10m164 0q0-10 10-10M317 27v12m164 0V27M317 39q0 10 10 10m144 0q10 0 10-10M327 49h10m34 0h10m0 0h10m70 0h10M97 17h20m374 0h20M97 17q10 0 10 10m394 0q0-10 10-10M107 27v56m394 0V27M107 83q0 10 10 10m374 0q10 0 10-10M117 93h10m44 0h10m0 0h10m72 0h10m0 0h218m20-76h10m24 0h10m3 0h-3"/><polygon points="565 17 573 13 573 21"/><polygon points="565 17 557 13 557 21"/></svg>