<svg version="1.1" viewBox="0 0 204.2 24.81" xmlns="http://www.w3.org/2000/svg">
  <path d="m92.075 13.808c0 3.7597-2.1644 6.0264-5.2067 6.0264-3.0434 0-5.2078-2.2667-5.2078-6.0264v-13.267h-5.5085v13.055c0 6.8731 4.3264 11.214 10.716 11.214 6.3887 0 10.716-4.3412 10.716-11.214v-13.055h-5.5096zm102.87 1.215-3.3106-8.3129-3.3105 8.3129zm9.2542 9.2452h-5.5722l-1.9299-4.8426h-10.125l-1.9287 4.8426h-5.5735l10.042-23.727h4.9359zm-32.682-15.542c0-1.0482-0.41922-2.0292-1.0578-2.5886-0.72101-0.63244-1.7568-0.96245-3.199-0.96245h-5.2657v7.1255h5.2831c1.4131 0 2.4187-0.31965 3.1318-0.92996 0.67223-0.57817 1.1076-1.5684 1.1076-2.6445zm-0.54106 7.5589 6.7857 7.9826h-6.4142l-6.319-7.4915h-3.034v7.4915h-5.3983v-23.727h10.967c3.0583 0 5.3041 0.74485 6.9136 2.1174 1.6093 1.3713 2.5474 3.4805 2.5474 5.9916 0 3.1436-1.3399 6.4087-6.0483 7.6353zm-138.54-15.744h-5.5096v23.727h16.668v-4.8286h-11.159zm-19.712 19.257c-4.0686 0-7.018-3.2024-7.018-7.3956 0-4.1939 2.9493-7.3896 7.018-7.3896 1.9588 0 3.5763 0.69497 4.9895 2.0305l3.5508-3.5419c-2.1458-2.2075-5.137-3.5014-8.5984-3.5014-7.1585 0-12.676 5.4484-12.676 12.405 0 6.9553 5.5178 12.405 12.676 12.405 3.6147 0 6.7824-1.4572 8.941-3.9057l-3.5335-3.5247c-1.4248 1.5729-3.1258 2.4186-5.3493 2.4186zm108.58-7.3931c0-4.2845-3.1027-7.1209-7.7229-7.1209h-3.6332v14.242h3.6332c4.6202 0 7.7229-2.8377 7.7229-7.1209zm5.7163 0c0 7.0955-5.2449 11.863-13.05 11.863h-9.5306v-23.727h9.2984c7.8066 0 13.283 4.7687 13.283 11.864zm-62.006 0.03583c0-4.3261-2.8414-7.466-6.8451-7.466-4.0047 0-6.8461 3.1399-6.8461 7.466 0 4.2845 2.8414 7.3931 6.8461 7.3931 4.0036 0 6.8451-3.1087 6.8451-7.3931zm5.7163 0c0 6.9356-5.2657 12.369-12.561 12.369-7.2967 0-12.563-5.4335-12.563-12.369 0-6.9773 5.2659-12.441 12.563-12.441 7.2956 0 12.561 5.4635 12.561 12.441zm58.795 11.827h20.606v-4.9039h-17.346c-0.77224 1.8576-1.8799 3.4978-3.2594 4.9039zm17.675-9.5127v-4.8567h-13.287c0.11374 0.83178 0.1928 1.6796 0.1928 2.561 0 0.78876-0.0593 1.5496-0.14755 2.2957zm-17.938-14.214h20.759v4.9041h-17.329c-0.81855-1.8624-1.9901-3.5001-3.43-4.9041z" fill="#fff" mask="url(#a)"/>
</svg>
