<svg version="1.1" viewBox="0 0 1499.6 160" xmlns="http://www.w3.org/2000/svg">
  <path d="m1082 159.48c0-0.28493 4.7724-18.988 10.605-41.561 5.8329-22.574 10.435-41.213 10.228-41.421-0.2076-0.20764-6.105-0.69576-13.105-1.0847s-12.728-0.86398-12.728-1.0556 5.1123-9.4634 11.361-20.604c6.2484-11.14 15.093-27.005 19.655-35.255s8.9693-15.788 9.7943-16.75c1.3394-1.5624 3.7281-1.75 22.286-1.75 11.432 0 21.038 0.40847 21.347 0.90772 0.3085 0.49924-6.6399 11.987-15.441 25.527-8.8011 13.541-16.002 24.832-16.002 25.092s7.9125 0.47268 17.583 0.47268c10.838 0 17.456 0.36949 17.25 0.96316-0.4054 1.1716-81.984 107.04-82.481 107.04-0.1936 0-0.352-0.23312-0.352-0.51805zm-1073.4-13.732c1.8871-7.2875 6.1439-23.825 9.4595-36.75s6.6746-25.719 7.4644-28.432c0.7898-2.7123 1.436-5.0748 1.436-5.25 0-0.17518-6.075-0.3185-13.5-0.3185s-13.5-0.23808-13.5-0.52908 5.9872-11.203 13.305-24.25c7.3176-13.047 16.632-29.683 20.699-36.971l7.3944-13.25h44.589l-4.3383 6.75c-2.386 3.7125-9.7817 15.177-16.435 25.478l-12.096 18.728 36.099 0.54466-15.408 20c-8.4744 11-26.149 33.95-39.277 51s-24.806 32.213-25.95 33.695c-1.1446 1.4821-2.3716 2.7196-2.7267 2.75-0.35505 0.03043 0.89847-5.9072 2.7856-13.195zm28.36-14.793c0-0.5867 4.3693-6.442 9.7095-13.012l9.7095-11.945h34.79c27.2 0 34.776 0.2727 34.725 1.25-0.0359 0.6875-2.6508 6.425-5.8109 12.75l-5.7457 11.5-38.689 0.26174c-26.903 0.18201-38.689-0.06321-38.689-0.80499zm98 0.55694c0-0.26748 5.7947-12.53 12.877-27.25 7.0824-14.72 15.777-32.839 19.322-40.264 14.34-30.036 22.475-46.903 26.287-54.5l4.0137-8 14.25-0.27746c7.8375-0.1526 14.25 0.1147 14.25 0.59401s-6.125 13.654-13.611 29.277c-27.775 57.966-35.389 74.101-35.389 74.992 0 0.53558 15.32 0.91404 37 0.91404 20.542 0 37 0.39012 37 0.87705 0 0.48237-2.515 6.1074-5.589 12.5l-5.589 11.623h-52.411c-28.826 0-52.411-0.21884-52.411-0.48631zm128-0.43943c0-0.50915 6.4643-14.347 14.365-30.75 27.609-57.321 37.962-78.901 42.732-89.074l4.806-10.25h54.048c47.199 0 54.048 0.18871 54.048 1.489 0 0.81894-2.5784 6.6689-5.7299 13l-5.7299 11.511h-79.647l-11.547 24.5 23.327 0.2681c12.83 0.14745 23.327 0.65462 23.327 1.127s-2.515 6.0893-5.589 12.482l-5.589 11.623h-47.953l-6.9343 14.357c-3.8139 7.8963-6.9343 14.646-6.9343 15s18.675 0.64314 41.5 0.64314c23.121 0 41.5 0.38841 41.5 0.87705 0 0.48237-2.515 6.1074-5.589 12.5l-5.589 11.623h-56.411c-33.924 0-56.411-0.36903-56.411-0.92574zm147.66-8.0902-4.8176-9.016 12.637-26.234c6.9506-14.429 17.214-35.735 22.807-47.347 7.8265-16.249 10.866-21.585 13.193-23.163 1.6631-1.1275 7.6738-5.2391 13.357-9.1369l10.333-7.0868h46.417c36.507 0 46.401 0.26686 46.341 1.25-0.0418 0.6875-2.6293 6.425-5.75 12.75l-5.6741 11.5-39.803 0.26152c-34.543 0.22696-40.126 0.4734-42.25 1.865-1.346 0.88192-2.4472 1.9369-2.4472 2.3445s-4.6691 10.368-10.376 22.135c-19.889 41.01-23.7 49.373-23.413 51.377 0.28285 1.974 1.1314 2.0275 39.892 2.5169l39.603 0.5-11.572 24.5h-93.66zm160.34 8.6386c0-0.40001 6.8919-14.888 24.081-50.623 3.8362-7.975 11.179-23.275 16.317-34l9.3419-19.5-42.947-0.53958 0.59975-2.3896c0.32986-1.3143 2.9168-7.1554 5.7488-12.98l5.1491-10.591h58.355c46.048 0 58.342 0.26361 58.296 1.25-0.0323 0.6875-2.6198 6.425-5.75 12.75l-5.6913 11.5-44.074 0.53713-14.963 31.196c-8.2296 17.158-19.512 40.662-25.073 52.231l-10.11 21.036-14.64 0.27673c-8.0519 0.15221-14.64 0.08287-14.64-0.15408zm91-0.0631c0-0.24227 6.1338-13.18 13.631-28.75 13.261-27.542 17.345-36.039 37.877-78.81 5.4126-11.275 10.268-21.062 10.789-21.75 0.73643-0.97107 12.251-1.25 51.6-1.25h50.652l9.2139 18.548-7.4244 15.476c-4.0834 8.5117-9.058 18.997-11.054 23.3l-3.63 7.8245-26.154 17.666 0.63361 14.842c0.34849 8.1633 0.68599 19.005 0.75 24.092l0.11639 9.25h-15c-8.25 0-15.075-0.1125-15.168-0.25-0.0921-0.1375-0.42963-10.825-0.75-23.75l-0.5825-23.5-43.533-0.5391-3.3652 7.2695c-1.8509 3.9983-7.0071 14.807-11.458 24.02l-8.093 16.75h-14.525c-7.989 0-14.525-0.19822-14.525-0.4405zm124.08-73.603c2.5168-1.347 16.088-28.352 15.292-30.428-0.52573-1.37-4.1548-1.5258-30.12-1.293l-29.522 0.26471-15.585 32.5h28.993c18.217 0 29.717-0.38774 30.942-1.0432zm30.919 73.759c0-0.18571 6.5733-14.035 14.607-30.777 15.087-31.438 22.085-46.05 33.97-70.93 3.8073-7.97 8.4974-17.645 10.422-21.5l3.5-7.0091 14.25-0.27746c9.3665-0.18237 14.25 0.078553 14.25 0.76137 0 0.99185-5.8712 13.372-44.564 93.971l-17.064 35.545-14.686 0.27673c-8.0774 0.15221-14.686 0.12479-14.686-0.06092zm76.423-8.9658-4.5635-9.25 17.642-36.5c9.703-20.075 19.892-41.266 22.642-47.09l4.9999-10.59 26.782-18.319h93.21l-0.713 2.25c-0.3921 1.2375-3.0358 6.975-5.875 12.75l-5.162 10.5-39.942 0.27903c-36.027 0.25168-40.153 0.44773-42.09 2-1.8794 1.5064-10.534 18.848-31.356 62.831-4.1862 8.8424-5.4854 12.552-4.815 13.75 0.82638 1.4767 4.8045 1.6403 39.868 1.6403 21.66 0 38.95 0.38933 38.95 0.87705 0 0.48237-2.515 6.1074-5.589 12.5l-5.589 11.623h-93.835zm220.7 7.342c0.7546-1.0494 5.197-6.6718 9.872-12.494l8.5-10.586 35.25-6e-3c19.388-3e-3 35.25 0.16661 35.25 0.37726 0 0.21064-2.6922 5.8356-5.9826 12.5l-5.9826 12.117h-39.139c-38.323 0-39.111-0.0398-37.767-1.908zm96.872 1.5306c0-0.23696 3.8713-8.4615 8.6029-18.277s10.422-21.671 12.645-26.346c8.0159-16.855 37.727-78.579 39.471-82l1.7845-3.5h102l9.3467 18.045-22.423 46.61-25.82 17.669 0.2065 9.8376c0.1135 5.4107 0.488 16.25 0.8322 24.088l0.6258 14.25h-29.973l-0.6422-8.25c-0.3532-4.5375-0.6449-15.346-0.6482-24.019l-0.01-15.769-44.062 0.53826-22.705 47-14.616 0.27673c-8.035 0.15221-14.612 0.08287-14.612-0.15408zm124.08-73.665c2.4117-1.2907 14.92-25.987 14.92-29.458v-2.5292l-59.21 0.52976-15.643 32.5h28.992c18.21 0 29.717-0.38784 30.941-1.0428zm19.477 70.793c3.0268-3.5973 72.214-77.008 101.79-108l18.846-19.75h11.937c8.6433 0 12.061 0.34489 12.386 1.25 0.247 0.6875-0.1047 30.05-0.7814 65.25l-1.2305 64-30.531 0.55226 0.6696-14.026 0.6695-14.026-59.808 0.1564-25 27.811-31.678 0.0328 2.7345-3.25zm115.98-70.25c0.5684-12.1 0.9576-22.136 0.8648-22.302-0.093-0.16601-7.4967 7.709-16.453 17.5s-18.338 19.949-20.849 22.574l-4.5642 4.7719 39.968-0.54384zm-314.51-33.25c0.012-0.4125 3.7295-6.15 8.2618-12.75l8.2404-12 26.738-0.26633c17.061-0.16994 26.738 0.090026 26.738 0.71832 0 0.54156-2.5418 6.3989-5.6484 13.016l-5.6484 12.032h-29.352c-16.143 0-29.342-0.3375-29.33-0.75zm-1075.4-3.1298c1.0165-1.5839 4.7732-7.1923 8.3482-12.463l6.5-9.5834 27.219-0.036814c25.517-0.034512 27.177 0.072602 26.556 1.7132-0.36452 0.9625-3.0425 6.5875-5.9511 12.5l-5.2883 10.75h-59.231z" fill="#fff"/>
</svg>
