<svg xmlns="http://www.w3.org/2000/svg" width="421" height="81"><defs xmlns="http://www.w3.org/1999/xhtml"><style type="text/css">text.nonterminal,text.terminal{font-family:-apple-system,BlinkMacSystemFont,&quot;Segoe UI&quot;,Roboto,Ubuntu,Cantarell,Helvetica,sans-serif;font-size:12px}text.terminal{fill:#fff;font-weight:700}text.nonterminal{fill:#e289a4;font-weight:400}.line,polygon,rect{fill:none;stroke:none}.line{stroke:#636273}rect.terminal{fill:none;stroke:#be2f5b}rect.nonterminal{fill:rgba(255,255,255,.1);stroke:none}</style></defs><polygon points="9 61 1 57 1 65"/><polygon points="17 61 9 57 9 65"/><rect x="31" y="47" width="58" height="32" rx="10"/><rect x="29" y="45" width="58" height="32" class="terminal" rx="10"/><text class="terminal" x="39" y="65">DROP</text><rect x="109" y="47" width="78" height="32" rx="10"/><rect x="107" y="45" width="78" height="32" class="terminal" rx="10"/><text class="terminal" x="117" y="65">COLUMN</text><a xmlns:xlink="http://www.w3.org/1999/xlink" xlink:href="#columnName" xlink:title="columnName"><rect x="227" y="47" width="102" height="32"/><rect x="225" y="45" width="102" height="32" class="nonterminal"/><text class="nonterminal" x="235" y="65">columnName</text></a><rect x="227" y="3" width="24" height="32" rx="10"/><rect x="225" y="1" width="24" height="32" class="terminal" rx="10"/><text class="terminal" x="235" y="21">,</text><rect x="369" y="47" width="24" height="32" rx="10"/><rect x="367" y="45" width="24" height="32" class="terminal" rx="10"/><text class="terminal" x="377" y="65">;</text><path class="line" d="M17 61h2m0 0h10m58 0h10m0 0h10m78 0h10m20 0h10m102 0h10m-142 0h20m-1 0q-9 0-9-10V27q0-10 10-10m122 44h20m-20 0q10 0 10-10V27q0-10-10-10m-122 0h10m24 0h10m0 0h78m20 44h10m24 0h10m3 0h-3"/><polygon points="411 61 419 57 419 65"/><polygon points="411 61 403 57 403 65"/></svg>