<svg xmlns="http://www.w3.org/2000/svg" width="371" height="37"><defs xmlns="http://www.w3.org/1999/xhtml"><style type="text/css">text.nonterminal,text.terminal{font-family:-apple-system,BlinkMacSystemFont,&quot;Segoe UI&quot;,Roboto,Ubuntu,Cantarell,Helvetica,sans-serif;font-size:12px}text.terminal{fill:#fff;font-weight:700}text.nonterminal{fill:#e289a4;font-weight:400}.line,polygon,rect{fill:none;stroke:none}.line{stroke:#636273}rect.terminal{fill:none;stroke:#be2f5b}rect.nonterminal{fill:rgba(255,255,255,.1);stroke:none}</style></defs><polygon points="9 17 1 13 1 21"/><polygon points="17 17 9 13 9 21"/><rect x="31" y="3" width="78" height="32" rx="10"/><rect x="29" y="1" width="78" height="32" class="terminal" rx="10"/><text class="terminal" x="39" y="21">VACUUM</text><rect x="129" y="3" width="62" height="32" rx="10"/><rect x="127" y="1" width="62" height="32" class="terminal" rx="10"/><text class="terminal" x="137" y="21">TABLE</text><a xmlns:xlink="http://www.w3.org/1999/xlink" xlink:href="#tableName" xlink:title="tableName"><rect x="211" y="3" width="88" height="32"/><rect x="209" y="1" width="88" height="32" class="nonterminal"/><text class="nonterminal" x="219" y="21">tableName</text></a><rect x="319" y="3" width="24" height="32" rx="10"/><rect x="317" y="1" width="24" height="32" class="terminal" rx="10"/><text class="terminal" x="327" y="21">;</text><path class="line" d="M17 17h2m0 0h10m78 0h10m0 0h10m62 0h10m0 0h10m88 0h10m0 0h10m24 0h10m3 0h-3"/><polygon points="361 17 369 13 369 21"/><polygon points="361 17 353 13 353 21"/></svg>